<svg width="58" height="53" viewBox="0 0 58 53" fill="none" xmlns="http://www.w3.org/2000/svg">
<path d="M41.1246 13.9609C41.1246 13.9609 45.7046 8.89139 46.0046 8.54395C46.131 8.40181 46.5732 7.86485 47.0312 7.28052C44.5991 9.99689 42.2301 12.6975 39.7349 15.3191L41.1246 13.9609Z" fill="url(#paint0_linear_166_30)" stroke="#010202" stroke-width="0.25" stroke-miterlimit="10"/>
<path d="M46.8259 47.9155L49.0053 52.2112C48.3578 50.7267 47.6313 49.2895 46.8259 47.9155Z" fill="url(#paint1_linear_166_30)"/>
<path d="M47.4101 6.85409C47.7418 6.38031 48.1208 5.92232 48.484 5.46432C48.3893 5.57487 47.6786 6.47507 47.0469 7.2805C47.1574 7.13837 47.2838 6.99623 47.4101 6.85409Z" fill="url(#paint2_linear_166_30)"/>
<path d="M47.805 6.85412C48.1524 6.38034 48.5156 5.92235 48.8789 5.46436C48.8473 5.49594 48.5314 5.46436 48.4841 5.46436C48.4209 5.46436 48.1208 5.41698 48.0892 5.46436C47.6155 6.06448 47.1259 6.68041 46.6521 7.28053C46.6837 7.24895 46.9995 7.28053 47.0469 7.28053C47.1101 7.28053 47.3943 7.32791 47.4417 7.28053C47.5523 7.1384 47.6786 6.99626 47.805 6.85412C47.7734 6.88571 47.4575 6.85412 47.4101 6.85412C47.347 6.85412 47.0627 6.80675 47.0153 6.85412C46.889 6.99626 46.7626 7.1384 46.6363 7.26474C46.9048 7.26474 47.1575 7.26474 47.4259 7.26474C47.9155 6.66461 48.3893 6.06448 48.8631 5.44856C48.5946 5.44856 48.3419 5.44856 48.0734 5.44856C47.7102 5.90655 47.347 6.36455 46.9995 6.83833C47.0153 6.80675 47.347 6.83833 47.3943 6.83833C47.4733 6.86992 47.7734 6.9015 47.805 6.85412Z" fill="#010202"/>
<path d="M39.7506 15.3033L34.8391 20.1517C36.5447 18.604 38.1713 16.9773 39.7506 15.3033Z" fill="url(#paint3_linear_166_30)"/>
<path d="M39.3558 15.3032C37.7133 16.9141 36.0867 18.5408 34.4442 20.1517C34.5706 20.0253 35.0917 20.278 35.2339 20.1517C36.9237 18.5882 38.5504 16.9615 40.1454 15.3032C40.0191 15.4454 39.4821 15.1769 39.3558 15.3032C37.7765 16.9773 36.134 18.604 34.4442 20.1517C34.7127 20.1517 34.9654 20.1517 35.2339 20.1517C36.8763 18.5408 38.503 16.9141 40.1454 15.3032C40.0191 15.4454 39.4979 15.1769 39.3558 15.3032Z" fill="#010202"/>
<path d="M56.7437 5.30641C54.1694 4.62731 50.5213 4.88 48.4998 5.44854C48.4998 5.44854 48.4998 5.44854 48.484 5.46433C48.1208 5.92233 47.7418 6.38032 47.4101 6.8541C47.2838 6.99624 47.1574 7.13838 47.0311 7.26472C46.5573 7.84905 46.1309 8.38601 46.0045 8.52815C45.6887 8.87559 41.1245 13.9451 41.1245 13.9451L39.7506 15.3033C38.1713 16.9615 36.5446 18.5882 34.839 20.1517L39.7506 15.3033C42.23 12.6817 44.6148 9.98109 47.0469 7.26472C47.6944 6.45928 48.4051 5.55909 48.484 5.44854C49.4632 4.20091 50.3634 2.93748 50.2528 1.31081C50.0949 0.363241 49.1473 -0.110545 48.3577 0.0473836C40.1138 1.7846 33.1492 6.08025 28.2218 12.6659C28.6008 10.8655 27.8428 9.03352 26.6741 7.61216C25.5212 6.22239 23.784 5.33799 21.9836 5.16427C19.6305 4.94317 17.3405 5.84336 15.0348 6.39611C12.6816 6.94886 10.2179 7.16996 7.81742 6.96466C7.81742 6.96466 4.1061 6.6488 0.394775 6.33294C1.56345 6.44349 2.73212 6.55404 2.73212 6.55404C5.44849 6.80673 8.16486 7.05941 10.8812 7.2963C12.2394 7.42264 13.645 7.56478 14.7979 8.33863C15.7928 9.01772 16.5035 10.0916 17.0878 11.1813C18.0354 12.9186 18.825 14.7505 19.4094 16.6615C20.0569 18.7303 20.4833 20.8624 21.3203 22.8523C23.6103 28.2376 28.6482 31.6489 33.6229 34.2547C39.0715 37.6502 43.5251 42.2933 46.81 47.9155L46.7942 47.8997C46.5731 47.347 40.635 31.9489 37.8712 24.6369C37.6501 24.0051 37.6343 23.2155 37.9028 22.5364C38.2818 21.6204 39.182 20.7044 40.019 20.2622C46.352 16.9615 52.527 12.9659 57.1227 7.24893C57.4544 6.83831 57.786 6.26977 57.5333 5.79598C57.407 5.51171 57.0595 5.38537 56.7437 5.30641Z" fill="url(#paint4_linear_166_30)"/>
<path d="M57.1385 5.3064C55.1802 4.81682 53.064 4.80103 51.0583 4.97475C50.4897 5.02213 49.9212 5.0853 49.3527 5.18005C48.721 5.2906 48.2314 5.3064 47.8208 5.81177C47.0785 6.74355 46.3678 7.69112 45.5782 8.59131C43.9357 10.4549 42.3091 12.35 40.5718 14.1188C38.5504 16.1561 36.5605 18.2249 34.4442 20.1675C34.7127 20.1675 34.9654 20.1675 35.2339 20.1675C36.6236 18.7935 38.0292 17.4037 39.419 16.0297C42.1511 13.3292 44.7096 10.4075 47.2206 7.50161C48.4367 6.11183 50.0476 4.422 50.5213 2.59003C50.7424 1.70563 50.7424 0.710677 49.8422 0.221099C49.4158 -0.0157938 48.9105 9.6485e-07 48.4367 0.0157938C47.6944 0.0315867 46.9679 0.268477 46.2573 0.442198C45.2307 0.710677 44.2042 1.02653 43.2092 1.37398C41.3299 2.03728 39.4979 2.8743 37.7607 3.86925C33.8757 6.08025 30.5118 9.09668 27.827 12.6659C28.0955 12.6659 28.3482 12.6659 28.6166 12.6659C29.0115 10.4549 27.906 8.14911 26.2003 6.74355C24.7316 5.5275 22.9628 5.13268 21.115 5.13268C19.0304 5.13268 17.0879 5.78018 15.0822 6.28555C12.7132 6.88568 10.3127 7.13837 7.88063 6.93306C5.51171 6.72776 3.15857 6.52245 0.789643 6.31714C0.521164 6.30135 0.252686 6.34873 0 6.31714C2.13204 6.50666 4.26407 6.71196 6.4119 6.90147C7.72271 7.02782 9.01772 7.13837 10.3285 7.26471C11.434 7.35947 12.5869 7.45423 13.6134 7.89643C15.6191 8.74924 16.6615 10.9287 17.5301 12.7922C18.5724 14.9874 19.2199 17.2774 19.8674 19.6147C20.4675 21.7783 21.2414 23.8314 22.5206 25.6792C23.6893 27.3532 25.1422 28.822 26.7373 30.1012C28.3166 31.3646 30.0222 32.4385 31.7752 33.4335C33.6072 34.46 35.3444 35.5655 36.9869 36.8921C40.7929 39.9401 43.9515 43.6988 46.4152 47.8997C46.4784 48.0103 47.1575 47.7892 47.2048 47.8997C46.4626 46.4468 46.0046 44.7885 45.4202 43.2724C44.1884 40.0823 42.9724 36.8921 41.7405 33.702C41.1088 32.0437 40.4613 30.3855 39.8296 28.7114C39.2926 27.2901 38.5661 25.8371 38.1871 24.3684C37.5396 21.7941 40.0823 20.436 41.9458 19.4252C44.0147 18.3039 46.0362 17.1037 47.9945 15.7771C50.2055 14.2767 52.3217 12.6343 54.2484 10.7865C55.1802 9.88632 56.0804 8.93875 56.9174 7.9596C57.6597 7.15416 58.8126 5.78019 57.1385 5.3064C56.9016 5.24323 56.5858 5.36957 56.3489 5.3064C57.7229 5.70122 57.1859 6.75934 56.5068 7.58057C55.7646 8.48076 54.9749 9.34937 54.1537 10.1706C52.4797 11.8446 50.6635 13.3608 48.7525 14.7505C46.8416 16.1403 44.8517 17.3879 42.7986 18.5566C40.9667 19.5989 38.3766 20.436 37.5238 22.5522C36.8921 24.1473 38.0134 26.0424 38.5819 27.5269C39.1979 29.1378 39.8138 30.7645 40.4297 32.3753C41.6773 35.6445 42.9408 38.9294 44.2042 42.1985C44.7254 43.5409 45.2307 44.8675 45.7519 46.2099C45.973 46.7626 46.1467 47.3786 46.4152 47.9155C46.6837 47.9155 46.9364 47.9155 47.2048 47.9155C45.0254 44.1884 42.2933 40.8087 39.0399 37.966C37.4606 36.592 35.755 35.2181 33.923 34.1915C32.17 33.2124 30.417 32.249 28.7746 31.0645C25.3633 28.6166 22.5522 25.4897 21.2098 21.4625C20.436 19.1567 19.9622 16.772 19.062 14.4978C18.2881 12.5395 17.3406 10.2338 15.7613 8.78083C13.8503 7.02782 10.7076 7.23313 8.29125 7.01203C5.79598 6.77513 3.28491 6.55403 0.789643 6.31714C0.521164 6.31714 0.268479 6.31714 0 6.31714C3.37967 6.60141 6.79093 7.0752 10.2022 7.02782C12.6343 6.99623 14.9716 6.53824 17.3248 5.89073C18.6356 5.5275 20.0411 5.0853 21.4151 5.14847C22.5364 5.19585 23.6735 5.57488 24.6211 6.15921C26.7689 7.47002 28.285 10.1074 27.8428 12.6501C27.8586 12.5869 28.5851 12.7132 28.6324 12.6501C31.0803 9.39675 34.081 6.60141 37.5554 4.45358C39.2452 3.41125 41.0456 2.51106 42.8934 1.78459C43.8725 1.38977 44.8675 1.05812 45.894 0.758055C46.889 0.457991 48.0577 0.0157929 49.1 0C48.8473 0 48.6104 0 48.3577 0C49.4948 0.11055 50.0002 0.994951 49.858 2.06886C49.7001 3.22174 49.0368 4.2009 48.3577 5.10109C46.8574 7.0594 45.1991 8.87558 43.5567 10.7076C41.3299 13.187 39.0557 15.5718 36.7026 17.9091C35.9603 18.6514 35.2181 19.3778 34.4758 20.1201C34.6021 19.9938 35.1233 20.2464 35.2654 20.1201C37.7291 17.8617 40.1296 15.477 42.3722 12.9975C44.3463 10.8181 46.4152 8.68607 48.184 6.34872C48.3735 6.11183 48.6578 5.57488 48.9105 5.41695C49.0842 5.3064 49.3527 5.2906 49.558 5.25902C50.1581 5.13268 50.774 5.03792 51.3899 4.97475C53.064 4.80103 54.7538 4.8642 56.3805 5.27481C56.6016 5.36957 56.9016 5.24323 57.1385 5.3064Z" fill="#4D2F97"/>
<defs>
<linearGradient id="paint0_linear_166_30" x1="65.7228" y1="49.9641" x2="25.0943" y2="-20.4065" gradientUnits="userSpaceOnUse">
<stop offset="0.4283" stop-color="#E6007E"/>
<stop offset="1" stop-color="#662483"/>
</linearGradient>
<linearGradient id="paint1_linear_166_30" x1="46.8302" y1="50.0678" x2="49.014" y2="50.0678" gradientUnits="userSpaceOnUse">
<stop offset="0.4283" stop-color="#E6007E"/>
<stop offset="1" stop-color="#662483"/>
</linearGradient>
<linearGradient id="paint2_linear_166_30" x1="47.0404" y1="6.36722" x2="48.4854" y2="6.36722" gradientUnits="userSpaceOnUse">
<stop offset="0.4283" stop-color="#E6007E"/>
<stop offset="1" stop-color="#662483"/>
</linearGradient>
<linearGradient id="paint3_linear_166_30" x1="34.8429" y1="17.7372" x2="39.7498" y2="17.7372" gradientUnits="userSpaceOnUse">
<stop offset="0.4283" stop-color="#E6007E"/>
<stop offset="1" stop-color="#662483"/>
</linearGradient>
<linearGradient id="paint4_linear_166_30" x1="0.398439" y1="23.9797" x2="57.6624" y2="23.9797" gradientUnits="userSpaceOnUse">
<stop offset="0.4283" stop-color="#E6007E"/>
<stop offset="1" stop-color="#662483"/>
</linearGradient>
</defs>
</svg>
