<svg width="72" height="60" viewBox="0 0 72 60" fill="none" xmlns="http://www.w3.org/2000/svg">
<path d="M51.0513 17.33C51.0513 17.33 56.7368 11.0368 57.1093 10.6055C57.2661 10.4291 57.815 9.76249 58.3836 9.03711C55.3644 12.4092 52.4237 15.7616 49.3261 19.016L51.0513 17.33Z" fill="url(#paint0_linear_166_72)" stroke="#010202" stroke-width="0.25" stroke-miterlimit="10"/>
<path d="M58.8538 8.50892C59.2655 7.92077 59.7361 7.35223 60.187 6.78369C60.0693 6.92093 59.1871 8.03841 58.4029 9.03826C58.5402 8.86181 58.697 8.68537 58.8538 8.50892Z" fill="url(#paint1_linear_166_72)"/>
<path d="M59.3441 8.50918C59.7754 7.92104 60.2263 7.3525 60.6772 6.78395C60.638 6.82316 60.2459 6.78395 60.1871 6.78395C60.1087 6.78395 59.7362 6.72514 59.697 6.78395C59.1088 7.52894 58.5011 8.29353 57.9129 9.03852C57.9521 8.99931 58.3442 9.03852 58.403 9.03852C58.4815 9.03852 58.8343 9.09733 58.8932 9.03852C59.0304 8.86207 59.1872 8.68563 59.3441 8.50918C59.3049 8.54839 58.9128 8.50918 58.854 8.50918C58.7755 8.50918 58.4226 8.45037 58.3638 8.50918C58.207 8.68563 58.0501 8.86207 57.8933 9.01891C58.2266 9.01891 58.5403 9.01891 58.8736 9.01891C59.4813 8.27392 60.0695 7.52894 60.6576 6.76435C60.3243 6.76435 60.0106 6.76435 59.6774 6.76435C59.2264 7.33289 58.7755 7.90143 58.3442 8.48958C58.3638 8.45037 58.7755 8.48958 58.8343 8.48958C58.9324 8.52879 59.3049 8.568 59.3441 8.50918Z" fill="#010202"/>
<path d="M49.3456 18.9961L43.2485 25.0148C45.3658 23.0935 47.3851 21.0742 49.3456 18.9961Z" fill="url(#paint2_linear_166_72)"/>
<path d="M48.8555 18.9964C46.8166 20.9961 44.7973 23.0154 42.7584 25.0151C42.9152 24.8583 43.5622 25.172 43.7386 25.0151C45.8364 23.0742 47.8557 21.0549 49.8358 18.9964C49.6789 19.1729 49.0124 18.8396 48.8555 18.9964C46.895 21.0745 44.8561 23.0938 42.7584 25.0151C43.0917 25.0151 43.4054 25.0151 43.7386 25.0151C45.7775 23.0154 47.7969 20.9961 49.8358 18.9964C49.6789 19.1729 49.032 18.8396 48.8555 18.9964Z" fill="#010202"/>
<path d="M70.4404 6.58708C67.2448 5.74407 62.7161 6.05774 60.2066 6.76352C60.2066 6.76352 60.2066 6.76352 60.187 6.78313C59.7361 7.35167 59.2656 7.92021 58.8539 8.50836C58.6971 8.6848 58.5402 8.86125 58.3834 9.01809C57.7952 9.74347 57.2659 10.41 57.1091 10.5865C56.717 11.0178 51.0511 17.311 51.0511 17.311L49.3455 18.997C47.385 21.0555 45.3657 23.0748 43.2484 25.0157L49.3455 18.997C52.4235 15.7426 55.3838 12.3901 58.403 9.01809C59.2068 8.01823 60.089 6.90075 60.187 6.76352C61.4025 5.21473 62.52 3.64634 62.3828 1.62703C62.1867 0.450734 61.0104 -0.137413 60.0302 0.0586358C49.7964 2.21518 41.1507 7.54771 35.0339 15.723C35.5044 13.488 34.5634 11.2138 33.1126 9.44939C31.6815 7.72416 29.5249 6.62628 27.29 6.41063C24.3688 6.13616 21.5261 7.25364 18.6638 7.93982C15.7427 8.62599 12.6843 8.90046 9.70436 8.64559C9.70436 8.64559 5.09721 8.2535 0.490051 7.8614C1.94082 7.99863 3.39158 8.13586 3.39158 8.13586C6.76363 8.44954 10.1357 8.76322 13.5077 9.05729C15.1937 9.21413 16.9386 9.39058 18.3697 10.3512C19.6048 11.1942 20.4871 12.5274 21.2125 13.8801C22.3887 16.0366 23.369 18.3108 24.0944 20.683C24.8982 23.2513 25.4275 25.8979 26.4666 28.3681C29.3093 35.0534 35.5633 39.2881 41.7388 42.5229C48.5025 46.7379 54.0311 52.5018 58.1089 59.4811L58.0893 59.4615C57.8148 58.7754 50.4434 39.6606 47.0125 30.5835C46.7381 29.7993 46.7185 28.819 47.0517 27.976C47.5223 26.839 48.6397 25.7019 49.6788 25.1529C57.5404 21.0555 65.2059 16.0955 70.9109 8.99848C71.3226 8.48875 71.7343 7.78297 71.4206 7.19482C71.2638 6.84194 70.8325 6.6851 70.4404 6.58708Z" fill="url(#paint3_linear_166_72)"/>
<path d="M70.9306 6.58726C68.4996 5.9795 65.8725 5.9599 63.3827 6.17555C62.6769 6.23437 61.9712 6.31278 61.2654 6.43041C60.4812 6.56765 59.8734 6.58725 59.3637 7.21461C58.4423 8.3713 57.56 9.5476 56.5798 10.6651C54.5409 12.9785 52.5216 15.3311 50.365 17.5268C47.8556 20.0558 45.3854 22.6241 42.7583 25.0355C43.0916 25.0355 43.4053 25.0355 43.7386 25.0355C45.4638 23.3299 47.2086 21.6046 48.9339 19.899C52.3255 16.5466 55.5015 12.9196 58.6187 9.31234C60.1283 7.58711 62.128 5.48938 62.7161 3.21521C62.9906 2.11733 62.9906 0.88222 61.8731 0.274468C61.3438 -0.0196061 60.7164 1.19775e-06 60.1283 0.0196061C59.2069 0.039211 58.305 0.333281 57.4228 0.548936C56.1485 0.882219 54.8742 1.27432 53.6391 1.70562C51.3061 2.52903 49.0319 3.5681 46.8754 4.80321C42.0526 7.5479 37.8767 11.2924 34.5439 15.7231C34.8772 15.7231 35.1908 15.7231 35.5241 15.7231C36.0142 12.9785 34.6419 10.1161 32.5246 8.3713C30.7013 6.86172 28.5056 6.3716 26.2118 6.3716C23.6239 6.3716 21.2125 7.1754 18.7227 7.80276C15.782 8.54774 12.802 8.86143 9.78286 8.60656C6.84212 8.3517 3.92098 8.09683 0.980246 7.84197C0.646962 7.82237 0.313679 7.88118 0 7.84197C2.64666 8.07723 5.29333 8.33209 7.9596 8.56735C9.58681 8.72419 11.1944 8.86143 12.8216 9.01827C14.194 9.13589 15.6251 9.25352 16.8994 9.80246C19.3893 10.8611 20.6832 13.5666 21.7615 15.88C23.0554 18.6051 23.8592 21.4478 24.663 24.3493C25.408 27.0352 26.3686 29.5838 27.9566 31.8776C29.4074 33.9557 31.211 35.779 33.1911 37.367C35.1516 38.9354 37.269 40.2685 39.4451 41.5036C41.7193 42.7779 43.8758 44.1503 45.9147 45.7971C50.6395 49.5809 54.5605 54.2468 57.6189 59.4617C57.6973 59.599 58.5403 59.3245 58.5991 59.4617C57.6777 57.6581 57.1091 55.5996 56.3837 53.7175C54.8546 49.7573 53.345 45.7971 51.8158 41.8369C51.0316 39.7784 50.2278 37.7199 49.4436 35.6418C48.777 33.8773 47.8752 32.0737 47.4047 30.2504C46.6009 27.0548 49.7573 25.3688 52.0707 24.1141C54.6389 22.7221 57.1483 21.2321 59.5794 19.5853C62.324 17.7229 64.9511 15.6839 67.3429 13.3902C68.4996 12.2727 69.6171 11.0964 70.6561 9.88088C71.5776 8.88103 73.0087 7.1754 70.9306 6.58726C70.6365 6.50884 70.2444 6.66568 69.9503 6.58726C71.656 7.07738 70.9894 8.39091 70.1464 9.41036C69.225 10.5278 68.2447 11.6061 67.2253 12.6256C65.1471 14.7037 62.8926 16.5858 60.5204 18.311C58.1482 20.0362 55.678 21.585 53.1293 23.0358C50.8552 24.3297 47.6399 25.3688 46.5813 27.9958C45.7971 29.9759 47.189 32.3285 47.8948 34.1714C48.6594 36.1711 49.424 38.1904 50.1886 40.1901C51.7374 44.2483 53.3058 48.3261 54.8742 52.3844C55.5211 54.0508 56.1485 55.6976 56.7955 57.364C57.0699 58.0502 57.2856 58.8148 57.6189 59.4813C57.9521 59.4813 58.2658 59.4813 58.5991 59.4813C55.8936 54.8546 52.502 50.6591 48.4634 47.1302C46.5029 45.4246 44.3855 43.719 42.1114 42.4447C39.9352 41.2292 37.7591 40.0333 35.7202 38.5629C31.4855 35.5241 27.9958 31.6423 26.3294 26.6431C25.3688 23.7808 24.7806 20.8204 23.6631 17.9973C22.7025 15.5663 21.5262 12.704 19.5657 10.9003C17.1935 8.72419 13.2921 8.97905 10.2926 8.70459C7.19501 8.41051 4.07782 8.13604 0.980246 7.84197C0.646962 7.84197 0.333284 7.84197 0 7.84197C4.19545 8.19486 8.43012 8.78301 12.6648 8.72419C15.6839 8.68498 18.5855 8.11644 21.5066 7.31263C23.1338 6.86172 24.8786 6.31279 26.5843 6.39121C27.9762 6.45002 29.3878 6.92054 30.5641 7.64592C33.2303 9.27313 35.1124 12.5472 34.5635 15.7035C34.5831 15.6251 35.4849 15.782 35.5437 15.7035C38.5825 11.6649 42.3074 8.19486 46.6205 5.52858C48.7182 4.23466 50.9532 3.11718 53.247 2.21535C54.4625 1.72523 55.6976 1.31353 56.9719 0.941034C58.207 0.56854 59.6578 0.0196049 60.9517 0C60.638 0 60.3439 0 60.0303 0C61.4418 0.137234 62.0692 1.23511 61.8927 2.56825C61.6967 3.99941 60.8733 5.21491 60.0303 6.33239C58.1678 8.7634 56.1093 11.018 54.0704 13.2921C51.3061 16.3701 48.483 19.3305 45.5618 22.232C44.6404 23.1534 43.719 24.0552 42.7975 24.9767C42.9544 24.8198 43.6013 25.1335 43.7778 24.9767C46.8362 22.1732 49.8161 19.2128 52.6 16.1349C55.0506 13.4294 57.6189 10.7827 59.8146 7.88118C60.0499 7.5871 60.4028 6.92054 60.7164 6.72449C60.9321 6.58725 61.2654 6.56765 61.5202 6.52844C62.2652 6.3716 63.0298 6.25397 63.7944 6.17555C65.8725 5.9599 67.9703 6.03832 69.9896 6.54804C70.264 6.66567 70.6365 6.50884 70.9306 6.58726Z" fill="#4047CE"/>
<defs>
<linearGradient id="paint0_linear_166_72" x1="81.587" y1="62.0236" x2="31.1516" y2="-25.333" gradientUnits="userSpaceOnUse">
<stop offset="0.4283" stop-color="#E6007E"/>
<stop offset="1" stop-color="#662483"/>
</linearGradient>
<linearGradient id="paint1_linear_166_72" x1="58.3949" y1="7.90452" x2="60.1887" y2="7.90452" gradientUnits="userSpaceOnUse">
<stop offset="0.4283" stop-color="#E6007E"/>
<stop offset="1" stop-color="#662483"/>
</linearGradient>
<linearGradient id="paint2_linear_166_72" x1="43.2533" y1="22.0175" x2="49.3445" y2="22.0175" gradientUnits="userSpaceOnUse">
<stop offset="0.4283" stop-color="#E6007E"/>
<stop offset="1" stop-color="#662483"/>
</linearGradient>
<linearGradient id="paint3_linear_166_72" x1="0.4946" y1="29.7677" x2="71.5809" y2="29.7677" gradientUnits="userSpaceOnUse">
<stop offset="0.4283" stop-color="#2670DD"/>
<stop offset="1" stop-color="#3840D5"/>
</linearGradient>
</defs>
</svg>
