<svg width="37" height="35" viewBox="0 0 37 35" fill="none" xmlns="http://www.w3.org/2000/svg">
<path d="M13.6411 31.3435C13.9157 31.5921 14.332 31.3212 14.229 30.9629L9.56475 14.7501C9.4779 14.4482 9.21463 14.2333 8.90527 14.2103C8.15043 14.1541 7.39595 14.0912 6.64192 14.0217L0.40239 13.4467C0.111091 13.4198 -0.0939528 13.7295 0.0439586 13.9911C3.41893 20.3909 8.27887 26.4889 13.6411 31.3435Z" fill="url(#paint0_linear_823_53)"/>
<path d="M18.217 34.7708C18.2546 34.9016 18.3656 35 18.5 35C18.6344 35 18.7454 34.9016 18.783 34.7707L24.4921 14.9259C24.5632 14.6786 24.3731 14.4338 24.1192 14.4448C20.3748 14.6078 16.6252 14.6078 12.8808 14.4448C12.6269 14.4338 12.4368 14.6786 12.5079 14.9259L18.217 34.7708Z" fill="url(#paint1_linear_823_53)"/>
<path d="M22.7711 30.9629C22.668 31.3212 23.0843 31.5921 23.3589 31.3435C28.7212 26.4889 33.5811 20.3909 36.956 13.9911C37.094 13.7295 36.8889 13.4198 36.5976 13.4467L30.3581 14.0217C29.604 14.0912 28.8496 14.1541 28.0947 14.2103C27.7854 14.2333 27.5221 14.4482 27.4353 14.7501L22.7711 30.9629Z" fill="url(#paint2_linear_823_53)"/>
<path d="M36.6441 10.6154C36.9263 10.5894 37.0763 10.2649 36.9154 10.0285L30.9214 1.21697C30.4031 0.454987 29.5485 0 28.6355 0H24.0265C23.7634 0 23.5842 0.27042 23.6838 0.517352L27.8616 10.884C27.983 11.1854 28.2822 11.3732 28.6022 11.3476C29.1039 11.3074 29.6054 11.2642 30.1067 11.218L36.6441 10.6154Z" fill="url(#paint3_linear_823_53)"/>
<path d="M20.6568 0.462C20.5419 0.182235 20.2722 0 19.9733 0H17.0267C16.7278 0 16.4582 0.182236 16.3432 0.462001L11.9787 11.0816C11.8803 11.3211 12.0455 11.5872 12.3012 11.5997C16.4313 11.8024 20.5687 11.8024 24.6989 11.5997C24.9545 11.5872 25.1197 11.3211 25.0213 11.0816L20.6568 0.462Z" fill="url(#paint4_linear_823_53)"/>
<path d="M13.3163 0.517353C13.4158 0.27042 13.2366 0 12.9735 0H8.36453C7.45154 0 6.59689 0.454988 6.07856 1.21697L0.0845746 10.0285C-0.0762604 10.2649 0.0737196 10.5894 0.35585 10.6154L6.89333 11.218C7.39462 11.2642 7.89612 11.3074 8.39779 11.3476C8.71785 11.3732 9.01701 11.1854 9.13844 10.884L13.3163 0.517353Z" fill="url(#paint5_linear_823_53)"/>
<defs>
<linearGradient id="paint0_linear_823_53" x1="18.5" y1="0" x2="18.5" y2="35" gradientUnits="userSpaceOnUse">
<stop stop-color="#E81212"/>
<stop offset="0.661458" stop-color="#FF4949"/>
</linearGradient>
<linearGradient id="paint1_linear_823_53" x1="18.5" y1="0" x2="18.5" y2="35" gradientUnits="userSpaceOnUse">
<stop stop-color="#E81212"/>
<stop offset="0.661458" stop-color="#FF4949"/>
</linearGradient>
<linearGradient id="paint2_linear_823_53" x1="18.5" y1="0" x2="18.5" y2="35" gradientUnits="userSpaceOnUse">
<stop stop-color="#E81212"/>
<stop offset="0.661458" stop-color="#FF4949"/>
</linearGradient>
<linearGradient id="paint3_linear_823_53" x1="18.5" y1="0" x2="18.5" y2="35" gradientUnits="userSpaceOnUse">
<stop stop-color="#E81212"/>
<stop offset="0.661458" stop-color="#FF4949"/>
</linearGradient>
<linearGradient id="paint4_linear_823_53" x1="18.5" y1="0" x2="18.5" y2="35" gradientUnits="userSpaceOnUse">
<stop stop-color="#E81212"/>
<stop offset="0.661458" stop-color="#FF4949"/>
</linearGradient>
<linearGradient id="paint5_linear_823_53" x1="18.5" y1="0" x2="18.5" y2="35" gradientUnits="userSpaceOnUse">
<stop stop-color="#E81212"/>
<stop offset="0.661458" stop-color="#FF4949"/>
</linearGradient>
</defs>
</svg>
