<svg width="34" height="46" viewBox="0 0 34 46" fill="none" xmlns="http://www.w3.org/2000/svg">
<path d="M22.6343 1.21056C22.6343 0.72526 22.3436 0.286871 21.8957 0.0967707C21.4478 -0.0933298 20.9293 0.0016063 20.5784 0.337969L16.2605 4.47692C9.83151 10.6395 4.39921 17.7579 0.1569 25.5787C0.0570175 25.7546 0 25.9578 0 26.1743C0 26.8429 0.543654 27.3849 1.21429 27.3849H11.6814V44.7895C11.6814 45.2688 11.9652 45.703 12.405 45.8967C12.8449 46.0905 13.358 46.0072 13.7134 45.6843L15.6454 43.9299C22.4083 37.7885 28.1476 30.6132 32.6479 22.6732L33.8429 20.5648C34.0553 20.19 34.0521 19.731 33.8345 19.3592C33.6168 18.9874 33.2175 18.7588 32.7857 18.7588H22.6343V1.21056Z" fill="#F8E645"/>
</svg>
