<svg width="33" height="46" viewBox="0 0 33 46" fill="none" xmlns="http://www.w3.org/2000/svg">
<path d="M16.6529 0.143469C15.9449 -0.162886 15.2476 0.0514311 14.799 0.502303C14.3633 0.940275 14.1453 1.60872 14.2981 2.28267C14.5393 3.34647 14.6667 4.45322 14.6667 5.59005C14.6667 8.18556 14.0039 10.0034 12.8634 11.5104C11.7041 13.0423 10.0259 14.2895 7.90695 15.6967C7.87364 15.7188 7.84262 15.7441 7.81434 15.7722L7.55771 16.0275C3.01144 18.9263 0 23.9735 0 29.7154C0 38.7091 7.3873 46 16.5 46C25.6127 46 33 38.7091 33 29.7154C33 27.0747 32.3627 24.5793 31.2311 22.3722C31.139 22.1927 30.9623 22.0703 30.7599 22.0458C30.5575 22.0214 30.3562 22.0983 30.223 22.2507C30.0507 22.4479 29.8819 22.6425 29.7156 22.8343C27.5686 25.31 25.8361 27.3079 22.2839 28.2004C22.1329 28.2383 22.039 28.2101 21.9725 28.1691C21.8941 28.1208 21.8084 28.0243 21.7496 27.8702C21.6272 27.549 21.6797 27.1394 21.9306 26.871C23.8304 24.8382 25.18 22.0787 25.6622 18.1533C26.5656 10.8001 23.1794 2.96757 16.6529 0.143469Z" fill="url(#paint0_linear_927_35)"/>
<defs>
<linearGradient id="paint0_linear_927_35" x1="16.5" y1="0" x2="16.5" y2="46" gradientUnits="userSpaceOnUse">
<stop stop-color="#FF8B02"/>
<stop offset="1" stop-color="#DECC2B"/>
</linearGradient>
</defs>
</svg>
