<svg width="46" height="34" viewBox="0 0 46 34" fill="none" xmlns="http://www.w3.org/2000/svg">
<path d="M12.1487 0C5.58875 0 0 4.8756 0 11.2078C0 15.5761 2.05784 19.2538 4.78516 22.3003C7.5031 25.3363 11.0097 27.8847 14.1797 30.0176L19.6493 33.6977C20.2483 34.1008 21.0338 34.1008 21.6328 33.6977L27.1023 30.0176C28.116 29.3356 29.1641 28.6111 30.2098 27.8418C30.4833 27.6405 30.5704 27.2731 30.4194 26.97L27.2045 20.5192C27.0527 20.2145 26.6355 20.1667 26.4178 20.4289L26.2461 20.6358C25.3499 21.7156 24.0152 22.341 22.6068 22.341H18.2821C15.6764 22.341 13.5641 20.2414 13.5641 17.6513C13.5641 15.0613 15.6764 12.9617 18.2821 12.9617H19.938C20.2197 12.9617 20.4867 12.8366 20.6659 12.6206L24.3735 8.15351C25.4075 6.90776 27.0135 6.27847 28.6245 6.48785C30.2355 6.69724 31.6248 7.71584 32.3017 9.18396L34.1953 13.2906C34.394 13.7214 34.9587 13.8363 35.3707 13.5977C36.0718 13.1918 36.8844 12.9617 37.7436 12.9617H40.547C40.9032 12.9617 41.2059 12.6986 41.2351 12.3458C41.2661 11.9718 41.2821 11.5925 41.2821 11.2078C41.2821 4.8756 35.6933 0 29.1333 0C25.7518 0 22.7763 1.57605 20.641 3.61533C18.5058 1.57605 15.5302 0 12.1487 0Z" fill="url(#paint0_linear_823_52)"/>
<path d="M29.6212 10.4052C29.3673 9.85465 28.8463 9.47267 28.2422 9.39415C27.6381 9.31563 27.0358 9.55162 26.6481 10.0188L21.7728 15.8927H18.2821C17.3049 15.8927 16.5128 16.6801 16.5128 17.6513C16.5128 18.6226 17.3049 19.41 18.2821 19.41H22.6068C23.135 19.41 23.6355 19.1754 23.9716 18.7705L27.5808 14.4219L31.8105 23.5948C32.0643 24.1453 32.5853 24.5273 33.1894 24.6058C33.7935 24.6844 34.3958 24.4484 34.7835 23.9812L38.5776 19.41H44.2308C45.2079 19.41 46 18.6226 46 17.6513C46 16.6801 45.2079 15.8927 44.2308 15.8927H37.7436C37.2155 15.8927 36.7149 16.1272 36.3789 16.5322L33.8508 19.5781L29.6212 10.4052Z" fill="url(#paint1_linear_823_52)"/>
<defs>
<linearGradient id="paint0_linear_823_52" x1="23" y1="0" x2="23" y2="34" gradientUnits="userSpaceOnUse">
<stop stop-color="#E81212"/>
<stop offset="0.633744" stop-color="#FF4949"/>
</linearGradient>
<linearGradient id="paint1_linear_823_52" x1="23" y1="0" x2="23" y2="34" gradientUnits="userSpaceOnUse">
<stop stop-color="#E81212"/>
<stop offset="0.633744" stop-color="#FF4949"/>
</linearGradient>
</defs>
</svg>
