<svg width="18" height="18" viewBox="0 0 18 18" fill="none" xmlns="http://www.w3.org/2000/svg">
<path d="M12.6377 0H5.3623C2.40551 0 0 2.40551 0 5.3623V12.6377C0 15.5945 2.40551 18 5.3623 18H12.6377C15.5945 18 18 15.5945 18 12.6377V5.3623C18 2.40551 15.5945 0 12.6377 0ZM16.1892 12.6377C16.1892 14.5991 14.5991 16.1892 12.6377 16.1892H5.3623C3.40088 16.1892 1.8108 14.5991 1.8108 12.6377V5.3623C1.8108 3.40084 3.40088 1.8108 5.3623 1.8108H12.6377C14.5991 1.8108 16.1892 3.40084 16.1892 5.3623V12.6377Z" fill="url(#paint0_linear_189_139)"/>
<path d="M9.00001 4.34473C6.433 4.34473 4.34457 6.43315 4.34457 9.00013C4.34457 11.5671 6.433 13.6556 9.00001 13.6556C11.567 13.6556 13.6555 11.5671 13.6555 9.00013C13.6555 6.43312 11.567 4.34473 9.00001 4.34473ZM9.00001 11.8448C7.42895 11.8448 6.15537 10.5712 6.15537 9.00017C6.15537 7.4291 7.42898 6.15553 9.00001 6.15553C10.5711 6.15553 11.8447 7.4291 11.8447 9.00017C11.8447 10.5712 10.571 11.8448 9.00001 11.8448Z" fill="url(#paint1_linear_189_139)"/>
<path d="M13.6645 5.49524C14.2806 5.49524 14.78 4.9958 14.78 4.3797C14.78 3.7636 14.2806 3.26416 13.6645 3.26416C13.0484 3.26416 12.5489 3.7636 12.5489 4.3797C12.5489 4.9958 13.0484 5.49524 13.6645 5.49524Z" fill="url(#paint2_linear_189_139)"/>
<defs>
<linearGradient id="paint0_linear_189_139" x1="9" y1="17.9476" x2="9" y2="0.139809" gradientUnits="userSpaceOnUse">
<stop stop-color="#E09B3D"/>
<stop offset="0.3" stop-color="#C74C4D"/>
<stop offset="0.6" stop-color="#C21975"/>
<stop offset="1" stop-color="#8E40E3"/>
</linearGradient>
<linearGradient id="paint1_linear_189_139" x1="9.00001" y1="17.9478" x2="9.00001" y2="0.139977" gradientUnits="userSpaceOnUse">
<stop stop-color="#E09B3D"/>
<stop offset="0.3" stop-color="#C74C4D"/>
<stop offset="0.6" stop-color="#C21975"/>
<stop offset="1" stop-color="#F0E2FF"/>
</linearGradient>
<linearGradient id="paint2_linear_189_139" x1="13.6645" y1="17.9478" x2="13.6645" y2="0.139997" gradientUnits="userSpaceOnUse">
<stop stop-color="#E09B3D"/>
<stop offset="0.3" stop-color="#C74C4D"/>
<stop offset="0.6" stop-color="#C21975"/>
<stop offset="1" stop-color="#A361ED"/>
</linearGradient>
</defs>
</svg>
