<svg width="180" height="181" viewBox="0 0 180 181" fill="none" xmlns="http://www.w3.org/2000/svg">
<path d="M135.01 60.0047C138.989 60.0047 142.805 58.4242 145.618 55.6109C148.431 52.7977 150.012 48.9821 150.012 45.0035C150.012 41.0249 148.431 37.2093 145.618 34.3961C142.805 31.5828 138.989 30.0023 135.01 30.0023C131.032 30.0023 127.216 31.5828 124.403 34.3961C121.59 37.2093 120.009 41.0249 120.009 45.0035C120.009 48.9821 121.59 52.7977 124.403 55.6109C127.216 58.4242 131.032 60.0047 135.01 60.0047ZM82.5064 150.012V142.511H97.5076C99.4968 142.511 101.405 141.721 102.811 140.314C104.218 138.908 105.008 137 105.008 135.01V120.009H120.009C132.609 120.006 144.889 116.037 155.106 108.664C165.324 101.292 172.962 90.8895 176.936 78.9328C180.911 66.9761 181.021 54.0716 177.25 42.0489C173.48 30.0263 166.021 19.4956 155.93 11.9499C145.839 4.40421 133.629 0.226445 121.031 0.00894498C108.433 -0.208555 96.0861 3.54525 85.7409 10.7381C75.3957 17.931 67.5773 28.1979 63.3941 40.0833C59.211 51.9686 58.8754 64.8692 62.4349 76.956L4.38034 135.01C1.57239 137.826 -0.00312554 141.64 4.65535e-06 145.616V165.013C4.65535e-06 168.991 1.58048 172.807 4.39374 175.62C7.20701 178.433 11.0226 180.014 15.0012 180.014H45.0035C48.9821 180.014 52.7977 178.433 55.6109 175.62C58.4242 172.807 60.0047 168.991 60.0047 165.013V157.512H75.0058C76.9951 157.512 78.9029 156.722 80.3095 155.315C81.7162 153.909 82.5064 152.001 82.5064 150.012ZM75.0058 60.0047C75.0058 51.1038 77.6452 42.4028 82.5903 35.0021C87.5353 27.6013 94.5639 21.8331 102.787 18.4269C111.011 15.0206 120.059 14.1294 128.789 15.8659C137.519 17.6024 145.538 21.8885 151.832 28.1824C158.125 34.4762 162.412 42.4951 164.148 51.2249C165.885 59.9547 164.993 69.0034 161.587 77.2268C158.181 85.4501 152.413 92.4786 145.012 97.4237C137.611 102.369 128.91 105.008 120.009 105.008H97.5076C95.5183 105.008 93.6105 105.798 92.2038 107.205C90.7972 108.612 90.007 110.519 90.007 112.509V127.51H75.0058C73.0165 127.51 71.1087 128.3 69.7021 129.707C68.2955 131.113 67.5052 133.021 67.5052 135.01V142.511H52.5041C50.5148 142.511 48.607 143.301 47.2004 144.708C45.7937 146.115 45.0035 148.022 45.0035 150.012V165.013H15.0012V145.616L76.3409 84.2765C77.3693 83.2492 78.0771 81.9451 78.378 80.5229C78.6789 79.1008 78.5602 77.6218 78.0361 76.2659C76.0859 71.2255 75.0058 65.7651 75.0058 60.0047Z" fill="#342150"/>
</svg>
