<svg width="144" height="147" viewBox="0 0 144 147" fill="none" xmlns="http://www.w3.org/2000/svg">
<path d="M70.539 22.36C68.399 22.36 66.459 21.9 64.719 20.98C62.999 20.04 61.639 18.75 60.639 17.11C59.659 15.45 59.169 13.58 59.169 11.5C59.169 9.42 59.659 7.56 60.639 5.92C61.639 4.26 62.999 2.97 64.719 2.05C66.459 1.11 68.409 0.64 70.569 0.64C72.389 0.64 74.029 0.96 75.489 1.6C76.969 2.24 78.209 3.16 79.209 4.36L76.089 7.24C74.669 5.6 72.909 4.78 70.809 4.78C69.509 4.78 68.349 5.07 67.329 5.65C66.309 6.21 65.509 7 64.929 8.02C64.369 9.04 64.089 10.2 64.089 11.5C64.089 12.8 64.369 13.96 64.929 14.98C65.509 16 66.309 16.8 67.329 17.38C68.349 17.94 69.509 18.22 70.809 18.22C72.909 18.22 74.669 17.39 76.089 15.73L79.209 18.61C78.209 19.83 76.969 20.76 75.489 21.4C74.009 22.04 72.359 22.36 70.539 22.36Z" fill="url(#paint0_linear_52_138)"/>
<path d="M89.7287 26.6744C88.1757 25.983 86.9203 25.0409 85.9626 23.8483C85.0313 22.6455 84.4747 21.314 84.2929 19.8538C84.1111 18.3936 84.3456 16.9327 84.9964 15.471C85.6472 14.0094 86.5759 12.8576 87.7827 12.0156C88.9895 11.1737 90.3473 10.7055 91.8562 10.611C93.3915 10.5064 94.9356 10.7998 96.4887 11.4913C98.0417 12.1827 99.2838 13.1299 100.215 14.3326C101.155 15.5172 101.715 16.8395 101.897 18.2997C102.079 19.7599 101.844 21.2208 101.194 22.6825C100.543 24.1442 99.614 25.296 98.4072 26.1379C97.2004 26.9799 95.8385 27.4572 94.3215 27.5699C92.8127 27.6644 91.2817 27.3659 89.7287 26.6744ZM91.2906 23.1664C92.3868 23.6545 93.4448 23.6877 94.4645 23.266C95.5106 22.8341 96.3102 21.997 96.8633 20.7545C97.4165 19.5121 97.4995 18.3669 97.1123 17.3188C96.7516 16.2606 96.023 15.4874 94.9268 14.9993C93.8305 14.5112 92.7594 14.4831 91.7133 14.915C90.6753 15.3285 89.8798 16.1565 89.3266 17.399C88.7734 18.6414 88.6864 19.7958 89.0654 20.8621C89.4526 21.9102 90.1943 22.6783 91.2906 23.1664Z" fill="url(#paint1_linear_52_138)"/>
<path d="M122.104 22.3908L125.235 25.8687L108.693 40.7636L105.561 37.2857L122.104 22.3908Z" fill="url(#paint2_linear_52_138)"/>
<path d="M132.461 50.348L133.908 54.799L118.558 59.7865L117.111 55.3355L132.461 50.348ZM135.324 51.8782C135.059 51.0603 135.08 50.3173 135.389 49.6492C135.697 48.9811 136.204 48.5328 136.907 48.3041C137.611 48.0754 138.284 48.1406 138.927 48.4997C139.569 48.8587 140.023 49.4472 140.289 50.2651C140.555 51.083 140.543 51.8229 140.253 52.4848C139.963 53.1467 139.476 53.5889 138.792 53.8114C138.05 54.0525 137.348 53.9965 136.687 53.6436C136.044 53.2846 135.59 52.6961 135.324 51.8782Z" fill="url(#paint3_linear_52_138)"/>
<path d="M136.191 82.2439C136.034 83.7357 135.544 85.0517 134.72 86.1918C133.914 87.3539 132.848 88.2172 131.522 88.7817C130.215 89.3482 128.737 89.5447 127.086 89.3712C125.435 89.1977 124.019 88.697 122.84 87.8691C121.679 87.0434 120.816 85.9773 120.25 84.6709C119.701 83.3865 119.505 81.9984 119.662 80.5066C119.894 78.2988 120.767 76.6912 122.28 75.6839L120.43 75.4895L120.898 71.044L143.036 73.3708L142.546 78.0252L134.759 77.2067C135.929 78.5161 136.406 80.1952 136.191 82.2439ZM123.565 80.1025C123.44 81.2959 123.735 82.3123 124.451 83.1518C125.185 84.0132 126.229 84.515 127.581 84.6572C128.934 84.7994 130.049 84.5244 130.926 83.8323C131.821 83.1622 132.331 82.2304 132.456 81.037C132.582 79.8435 132.278 78.8161 131.544 77.9546C130.827 77.1152 129.793 76.6244 128.44 76.4822C127.088 76.3401 125.964 76.604 125.069 77.2742C124.192 77.9663 123.691 78.909 123.565 80.1025Z" fill="url(#paint4_linear_52_138)"/>
<path d="M125.341 106.664C125.736 107.539 125.872 108.483 125.749 109.497C125.615 110.529 125.238 111.581 124.618 112.655L120.877 110.495C121.172 110.065 121.364 109.772 121.454 109.616C122.124 108.455 122.32 107.356 122.042 106.318C121.781 105.29 121.001 104.401 119.702 103.651L113.103 99.8406L115.443 95.7876L129.42 103.858L127.185 107.729L125.341 106.664Z" fill="url(#paint5_linear_52_138)"/>
<path d="M110.526 126.804L106.74 129.555L97.2532 116.498L101.039 113.747L110.526 126.804ZM109.956 130C110.651 129.495 111.365 129.285 112.095 129.372C112.826 129.46 113.409 129.802 113.844 130.401C114.279 131 114.425 131.66 114.282 132.382C114.139 133.104 113.72 133.718 113.024 134.223C112.328 134.729 111.621 134.946 110.902 134.875C110.183 134.804 109.612 134.477 109.188 133.895C108.73 133.264 108.566 132.579 108.698 131.841C108.841 131.119 109.26 130.506 109.956 130Z" fill="url(#paint6_linear_52_138)"/>
<path d="M56.415 123.094C58.5082 123.539 60.3102 124.392 61.8209 125.654C63.3079 126.931 64.3699 128.476 65.0071 130.288C65.6206 132.115 65.7111 134.046 65.2786 136.081C64.8462 138.115 63.9801 139.833 62.6806 141.233C61.3573 142.649 59.7588 143.628 57.8851 144.17C55.9877 144.728 53.9826 144.782 51.8698 144.333C50.0896 143.955 48.5519 143.301 47.2569 142.371C45.9423 141.438 44.9207 140.28 44.192 138.898L47.8426 136.73C48.8906 138.629 50.4417 139.797 52.4958 140.234C53.7674 140.504 54.9623 140.462 56.0806 140.106C57.1948 139.771 58.1416 139.164 58.9209 138.287C59.6808 137.406 60.1958 136.329 60.4661 135.058C60.7364 133.786 60.7037 132.593 60.368 131.479C60.0128 130.361 59.3966 129.412 58.5194 128.633C57.6382 127.873 56.5617 127.358 55.2901 127.088C53.236 126.651 51.3419 127.097 49.6078 128.425L47.1548 124.96C48.3866 123.974 49.7928 123.322 51.3736 123.004C52.9543 122.686 54.6348 122.716 56.415 123.094Z" fill="url(#paint7_linear_52_138)"/>
<path d="M38.75 114.929C40.1254 115.928 41.1574 117.11 41.8463 118.476C42.5071 119.846 42.7747 121.264 42.6489 122.73C42.5232 124.196 41.9901 125.577 41.0496 126.871C40.1092 128.165 38.9612 129.099 37.6057 129.672C36.2503 130.244 34.8248 130.42 33.3293 130.199C31.8058 129.982 30.3564 129.374 28.9811 128.374C27.6057 127.375 26.5876 126.19 25.9267 124.82C25.2541 123.466 24.9807 122.056 25.1064 120.59C25.2322 119.124 25.7653 117.744 26.7058 116.45C27.6462 115.155 28.7942 114.222 30.1496 113.649C31.5051 113.076 32.9365 112.893 34.4438 113.098C35.9393 113.319 37.3747 113.929 38.75 114.929ZM36.493 118.035C35.5221 117.33 34.4942 117.077 33.4091 117.278C32.2961 117.483 31.3399 118.135 30.5405 119.236C29.7411 120.336 29.4218 121.439 29.5826 122.545C29.7155 123.655 30.2673 124.562 31.2382 125.268C32.209 125.973 33.2509 126.223 34.3639 126.018C35.4652 125.83 36.4155 125.185 37.2149 124.085C38.0143 122.985 38.3394 121.874 38.1904 120.752C38.0296 119.646 37.4638 118.74 36.493 118.035Z" fill="url(#paint8_linear_52_138)"/>
<path d="M6.55951 101.264C5.54951 99.5147 5.26912 97.8291 5.71835 96.2072C6.14026 94.5779 7.38179 93.1683 9.44293 91.9783L17.445 87.3583L19.785 91.4113L12.4065 95.6713C11.298 96.3113 10.6102 97.0201 10.3433 97.7978C10.049 98.5681 10.1469 99.3777 10.6369 100.226C11.1869 101.179 11.9337 101.752 12.8772 101.947C13.8034 102.151 14.8728 101.903 16.0852 101.203L23.1 97.1531L25.44 101.206L18.0615 105.466C15.8618 106.736 15.2719 108.254 16.2919 110.021C16.8319 110.956 17.5737 111.521 18.5172 111.715C19.4434 111.92 20.5128 111.672 21.7252 110.972L28.74 106.922L31.08 110.975L17.1024 119.045L14.8674 115.174L16.4782 114.244C15.5893 114.064 14.7739 113.692 14.0322 113.127C13.2804 112.545 12.6445 111.804 12.1245 110.903C11.5545 109.916 11.2387 108.909 11.1771 107.882C11.0981 106.865 11.291 105.899 11.7558 104.984C10.6984 104.833 9.72044 104.439 8.82207 103.803C7.91369 103.15 7.15951 102.303 6.55951 101.264Z" fill="url(#paint9_linear_52_138)"/>
<path d="M1.21305 78.9038C1.05626 77.412 1.26218 76.0229 1.83082 74.7364C2.37748 73.4321 3.24077 72.366 4.4207 71.5382C5.58074 70.7124 6.98621 70.2127 8.63712 70.0392C10.288 69.8657 11.7766 70.0612 13.1029 70.6256C14.4093 71.1922 15.4753 72.0555 16.3011 73.2155C17.1049 74.3578 17.5852 75.6748 17.742 77.1665C17.9573 79.2153 17.4802 80.8943 16.3107 82.2038L23.7994 81.4167L24.2886 86.071L2.44893 88.3665L1.98169 83.921L3.8315 83.7265C2.31792 82.7192 1.4451 81.1116 1.21305 78.9038ZM14.0077 78.3735C13.8823 77.1801 13.382 76.2473 12.507 75.575C11.6099 74.885 10.4851 74.6111 9.13258 74.7533C7.78003 74.8954 6.74671 75.3962 6.03263 76.2555C5.29656 77.0971 4.99125 78.1146 5.11668 79.308C5.24212 80.5014 5.75335 81.4431 6.65039 82.1331C7.52545 82.8054 8.63926 83.0704 9.99181 82.9282C11.3444 82.7861 12.3887 82.2942 13.1247 81.4527C13.8388 80.5933 14.1331 79.5669 14.0077 78.3735Z" fill="url(#paint10_linear_52_138)"/>
<path d="M4.26017 52.7503C5.03272 50.3726 6.19666 48.732 7.75201 47.8284C9.28834 46.9186 11.1978 46.8346 13.4803 47.5762L22.2395 50.4223L20.886 54.5879L18.9744 53.9668C20.1291 55.2672 20.3356 57.0587 19.5939 59.3412C19.2108 60.5206 18.6773 61.4828 17.9936 62.228C17.316 62.9542 16.5512 63.4311 15.6991 63.659C14.8469 63.8868 13.9739 63.8555 13.0799 63.565C11.6533 63.1015 10.7041 62.2043 10.2323 60.8733C9.76668 59.5234 9.8985 57.7261 10.6278 55.4816L11.7773 51.9437C10.8072 51.6285 9.96963 51.6823 9.26447 52.1051C8.54029 52.5217 7.9866 53.3197 7.60342 54.499C7.33767 55.3169 7.20815 56.1685 7.21487 57.054C7.20875 57.9142 7.33482 58.6912 7.59308 59.3849L3.96397 59.9722C3.64625 58.9437 3.51422 57.7967 3.56786 56.5314C3.62768 55.247 3.85845 53.9866 4.26017 52.7503ZM16.9597 57.2551C17.2069 56.4943 17.2551 55.7634 17.1043 55.0625C16.9345 54.3554 16.5474 53.767 15.943 53.2972L14.3737 52.7873L13.3818 55.8402C12.7885 57.6663 13.091 58.7739 14.2893 59.1633C14.8599 59.3487 15.3875 59.2783 15.872 58.9521C16.3437 58.6006 16.7063 58.035 16.9597 57.2551Z" fill="url(#paint11_linear_52_138)"/>
<path d="M19.7415 26.6353C21.0798 25.149 22.603 24.354 24.3111 24.2503C26.0326 24.1318 27.7703 24.8621 29.5241 26.4412L36.3907 32.624L33.2592 36.1019L26.9276 30.4009C25.9764 29.5444 25.083 29.1168 24.2476 29.1181C23.3972 29.1061 22.6174 29.4939 21.9082 30.2816C21.1186 31.1585 20.7646 32.1047 20.8461 33.12C20.9128 34.122 21.4812 35.1048 22.5513 36.0683L28.4816 41.408L25.3501 44.8859L13.3557 34.0861L16.3467 30.7643L17.7513 32.0289C17.6608 31.1132 17.7896 30.193 18.1377 29.2684C18.4709 28.3304 19.0055 27.4527 19.7415 26.6353Z" fill="url(#paint12_linear_52_138)"/>
<path d="M49.792 7.95799L50.0997 26.5721C50.1802 28.5723 49.8726 30.1433 49.1768 31.285C48.4993 32.4185 47.4571 33.2985 46.0502 33.9249C45.2829 34.2665 44.4717 34.4854 43.6169 34.5814C42.762 34.6774 42.0035 34.621 41.3414 34.4123L41.5491 30.6747C42.0081 30.8206 42.4844 30.8822 42.9778 30.8595C43.4895 30.8287 43.9555 30.7198 44.3757 30.5327C44.9604 30.2724 45.3704 29.9147 45.6056 29.4597C45.849 29.0229 45.9705 28.4106 45.97 27.6227L45.9638 27.4612L32.9645 15.4501L37.377 13.4855L45.9691 21.6463L45.6811 9.7883L49.792 7.95799Z" fill="url(#paint13_linear_52_138)"/>
<defs>
<linearGradient id="paint0_linear_52_138" x1="69" y1="5" x2="69" y2="30" gradientUnits="userSpaceOnUse">
<stop stop-color="#8669CC"/>
<stop offset="0.5" stop-color="#6D45BE"/>
<stop offset="1" stop-color="#7A00FF"/>
</linearGradient>
<linearGradient id="paint1_linear_52_138" x1="96.7309" y1="10.9205" x2="86.6271" y2="33.6138" gradientUnits="userSpaceOnUse">
<stop stop-color="#8669CC"/>
<stop offset="0.5" stop-color="#6D45BE"/>
<stop offset="1" stop-color="#7A00FF"/>
</linearGradient>
<linearGradient id="paint2_linear_52_138" x1="119.768" y1="27.6581" x2="101.308" y2="44.28" gradientUnits="userSpaceOnUse">
<stop stop-color="#8669CC"/>
<stop offset="0.5" stop-color="#6D45BE"/>
<stop offset="1" stop-color="#7A00FF"/>
</linearGradient>
<linearGradient id="paint3_linear_52_138" x1="134.006" y1="52.3189" x2="110.381" y2="59.9952" gradientUnits="userSpaceOnUse">
<stop stop-color="#8669CC"/>
<stop offset="0.5" stop-color="#6D45BE"/>
<stop offset="1" stop-color="#7A00FF"/>
</linearGradient>
<linearGradient id="paint4_linear_52_138" x1="136.948" y1="80.9725" x2="112.243" y2="78.3759" gradientUnits="userSpaceOnUse">
<stop stop-color="#8669CC"/>
<stop offset="0.5" stop-color="#6D45BE"/>
<stop offset="1" stop-color="#7A00FF"/>
</linearGradient>
<linearGradient id="paint5_linear_52_138" x1="128.015" y1="108.011" x2="106.502" y2="95.591" gradientUnits="userSpaceOnUse">
<stop stop-color="#8669CC"/>
<stop offset="0.5" stop-color="#6D45BE"/>
<stop offset="1" stop-color="#7A00FF"/>
</linearGradient>
<linearGradient id="paint6_linear_52_138" x1="109.129" y1="128.882" x2="94.528" y2="108.786" gradientUnits="userSpaceOnUse">
<stop stop-color="#8669CC"/>
<stop offset="0.5" stop-color="#6D45BE"/>
<stop offset="1" stop-color="#7A00FF"/>
</linearGradient>
<linearGradient id="paint7_linear_52_138" x1="54.311" y1="140.395" x2="59.4758" y2="116.097" gradientUnits="userSpaceOnUse">
<stop stop-color="#8669CC"/>
<stop offset="0.5" stop-color="#6D45BE"/>
<stop offset="1" stop-color="#7A00FF"/>
</linearGradient>
<linearGradient id="paint8_linear_52_138" x1="28.6254" y1="128.882" x2="43.2266" y2="108.786" gradientUnits="userSpaceOnUse">
<stop stop-color="#8669CC"/>
<stop offset="0.5" stop-color="#6D45BE"/>
<stop offset="1" stop-color="#7A00FF"/>
</linearGradient>
<linearGradient id="paint9_linear_52_138" x1="9.57136" y1="107.721" x2="31.0843" y2="95.3003" gradientUnits="userSpaceOnUse">
<stop stop-color="#8669CC"/>
<stop offset="0.5" stop-color="#6D45BE"/>
<stop offset="1" stop-color="#7A00FF"/>
</linearGradient>
<linearGradient id="paint10_linear_52_138" x1="0.736885" y1="80.3048" x2="25.4418" y2="77.7082" gradientUnits="userSpaceOnUse">
<stop stop-color="#8669CC"/>
<stop offset="0.5" stop-color="#6D45BE"/>
<stop offset="1" stop-color="#7A00FF"/>
</linearGradient>
<linearGradient id="paint11_linear_52_138" x1="3.85216" y1="51.9996" x2="27.4773" y2="59.6759" gradientUnits="userSpaceOnUse">
<stop stop-color="#8669CC"/>
<stop offset="0.5" stop-color="#6D45BE"/>
<stop offset="1" stop-color="#7A00FF"/>
</linearGradient>
<linearGradient id="paint12_linear_52_138" x1="18.2109" y1="27.4086" x2="36.6713" y2="44.0305" gradientUnits="userSpaceOnUse">
<stop stop-color="#8669CC"/>
<stop offset="0.5" stop-color="#6D45BE"/>
<stop offset="1" stop-color="#7A00FF"/>
</linearGradient>
<linearGradient id="paint13_linear_52_138" x1="41.0238" y1="10.9205" x2="51.1275" y2="33.6138" gradientUnits="userSpaceOnUse">
<stop stop-color="#8669CC"/>
<stop offset="0.5" stop-color="#6D45BE"/>
<stop offset="1" stop-color="#7A00FF"/>
</linearGradient>
</defs>
</svg>
