<svg width="166" height="166" viewBox="0 0 166 166" fill="none" xmlns="http://www.w3.org/2000/svg">
<path opacity="0.32" d="M40.0342 150.348C77.2312 174.244 126.69 163.372 150.505 126.064C174.32 88.7559 163.472 39.1398 126.276 15.2434C89.0797 -8.65307 39.6205 2.21948 15.8057 39.5277C-8.009 76.8359 2.83893 126.452 40.0342 150.348Z" fill="url(#paint0_linear_926_32)"/>
<path opacity="0.24" d="M100.486 150.687C96.1618 150.818 91.8962 149.658 88.2282 147.357C84.5604 145.055 81.6551 141.715 79.8796 137.757C78.1042 133.799 77.5384 129.403 78.2538 125.123C78.9693 120.844 80.9337 116.873 83.8989 113.714C86.864 110.555 90.6966 108.349 94.912 107.375C99.1276 106.401 103.537 106.703 107.581 108.242C111.626 109.782 115.125 112.49 117.636 116.024C120.147 119.558 121.557 123.76 121.688 128.098C121.863 133.915 119.728 139.561 115.751 143.797C111.775 148.034 106.284 150.513 100.486 150.687Z" fill="black"/>
<path opacity="0.24" d="M139.736 100.978C137.727 101.042 135.744 100.506 134.039 99.4378C132.334 98.3701 130.982 96.819 130.156 94.9807C129.33 93.1424 129.066 91.0996 129.398 89.1111C129.73 87.1224 130.642 85.2774 132.02 83.8094C133.398 82.3414 135.179 81.3167 137.137 80.8648C139.096 80.4129 141.145 80.5543 143.024 81.2709C144.903 81.9875 146.527 83.2473 147.692 84.8906C148.857 86.534 149.51 88.4869 149.568 90.5024C149.646 93.1988 148.655 95.8159 146.811 97.7797C144.968 99.7435 142.424 100.894 139.736 100.978Z" fill="black"/>
<defs>
<linearGradient id="paint0_linear_926_32" x1="151.401" y1="25.0029" x2="-28.5412" y2="176.396" gradientUnits="userSpaceOnUse">
<stop stop-color="#45ECDB"/>
<stop offset="0.39" stop-color="#434B83" stop-opacity="0.93"/>
<stop offset="0.567708" stop-color="#421464" stop-opacity="0.9"/>
<stop offset="0.671875" stop-color="#21163E"/>
</linearGradient>
</defs>
</svg>
