<svg width="162" height="161" viewBox="0 0 162 161" fill="none" xmlns="http://www.w3.org/2000/svg">
<path opacity="0.32" d="M147.157 125.597C172.162 89.1363 162.784 39.3723 126.21 14.445C89.6355 -10.4821 39.7152 -1.13308 14.7098 35.3268C-10.2957 71.7866 -0.917199 121.551 35.6571 146.478C72.2314 171.405 122.152 162.056 147.157 125.597Z" fill="url(#paint0_linear_926_33)"/>
<path opacity="0.24" d="M143.987 66.2804C143.987 68.9837 143.182 71.6262 141.676 73.8739C140.169 76.1215 138.028 77.8733 135.523 78.9078C133.017 79.9423 130.261 80.213 127.601 79.6856C124.941 79.1582 122.498 77.8565 120.581 75.945C118.663 74.0336 117.358 71.5982 116.829 68.947C116.3 66.2956 116.571 63.5475 117.609 61.0501C118.646 58.5526 120.404 56.4181 122.659 54.9162C124.913 53.4143 127.564 52.6128 130.276 52.6128C133.912 52.6128 137.399 54.0528 139.97 56.6159C142.542 59.1792 143.987 62.6556 143.987 66.2804Z" fill="black"/>
<path opacity="0.24" d="M62.3718 84.8882C62.3718 86.2081 61.9789 87.4984 61.2436 88.5958C60.5077 89.6933 59.4624 90.5486 58.2391 91.0537C57.0158 91.5588 55.67 91.691 54.3712 91.4335C53.0727 91.176 51.8799 90.5404 50.9436 89.6071C50.0074 88.6738 49.3699 87.4847 49.1115 86.1902C48.8533 84.8957 48.9858 83.5538 49.4925 82.3345C49.9992 81.115 50.8572 80.0728 51.9581 79.3395C53.059 78.6062 54.3535 78.2148 55.6774 78.2148C57.453 78.2148 59.1553 78.9179 60.4108 80.1694C61.6662 81.421 62.3718 83.1183 62.3718 84.8882Z" fill="black"/>
<path opacity="0.24" d="M63.4789 50.4608C63.4789 51.258 63.2417 52.0373 62.7975 52.7002C62.3531 53.363 61.7217 53.8796 60.9829 54.1847C60.244 54.4898 59.4311 54.5696 58.6467 54.4141C57.8624 54.2585 57.1419 53.8747 56.5765 53.311C56.011 52.7473 55.6259 52.0291 55.4699 51.2472C55.3139 50.4653 55.394 49.6549 55.7 48.9184C56.006 48.1818 56.5243 47.5524 57.1892 47.1095C57.8541 46.6666 58.636 46.4302 59.4356 46.4302C60.508 46.4302 61.5362 46.8548 62.2945 47.6107C63.0528 48.3666 63.4789 49.3918 63.4789 50.4608Z" fill="black"/>
<path opacity="0.24" d="M93.6297 104.783C93.6297 105.581 93.3924 106.36 92.9482 107.023C92.5038 107.686 91.8725 108.202 91.1336 108.507C90.3948 108.812 89.5819 108.892 88.7974 108.737C88.0131 108.581 87.2927 108.197 86.7272 107.633C86.1617 107.07 85.7767 106.352 85.6207 105.57C85.4647 104.788 85.5447 103.977 85.8508 103.241C86.1568 102.504 86.675 101.875 87.3399 101.432C88.0048 100.989 88.7867 100.753 89.5864 100.753C90.6588 100.753 91.687 101.177 92.4453 101.933C93.2035 102.689 93.6297 103.714 93.6297 104.783Z" fill="black"/>
<path opacity="0.24" d="M100.811 24.4538C100.814 26.4639 100.218 28.4295 99.0998 30.102C97.9813 31.7743 96.3902 33.0783 94.5278 33.8489C92.6655 34.6193 90.6157 34.8215 88.638 34.43C86.6602 34.0386 84.8435 33.071 83.4177 31.6497C81.9919 30.2283 81.0212 28.4173 80.6285 26.4457C80.2358 24.4742 80.4388 22.4308 81.2117 20.5744C81.9846 18.7179 83.2926 17.1317 84.9703 16.0167C86.648 14.9017 88.6197 14.308 90.636 14.3106C93.3336 14.3142 95.9196 15.384 97.827 17.2855C99.7344 19.1869 100.808 21.7649 100.811 24.4538Z" fill="black"/>
<path opacity="0.24" d="M97.1183 58.9626C97.121 60.9727 96.5255 62.9383 95.4068 64.6108C94.2883 66.2831 92.6972 67.5871 90.8349 68.3577C88.9725 69.1281 86.9228 69.3303 84.9451 68.9388C82.9673 68.5474 81.1506 67.5797 79.7247 66.1585C78.2989 64.7371 77.3283 62.9261 76.9356 60.9545C76.5429 58.9829 76.7459 56.9396 77.5187 55.0832C78.2916 53.2266 79.5997 51.6404 81.2773 50.5254C82.955 49.4104 84.9267 48.8167 86.9431 48.8193C89.6406 48.823 92.2266 49.8928 94.134 51.7943C96.0415 53.6957 97.1148 56.2737 97.1183 58.9626Z" fill="black"/>
<defs>
<linearGradient id="paint0_linear_926_33" x1="161" y1="6.0815e-06" x2="1.00002" y2="168.5" gradientUnits="userSpaceOnUse">
<stop stop-color="#FD61B6"/>
<stop offset="0.39" stop-color="#B30F67" stop-opacity="0.93"/>
<stop offset="0.567708" stop-color="#64144E" stop-opacity="0.9"/>
<stop offset="0.671875" stop-color="#21163E"/>
</linearGradient>
</defs>
</svg>
