<?xml version="1.0" encoding="utf-8"?>
<!-- Generator: Adobe Illustrator 26.0.2, SVG Export Plug-In . SVG Version: 6.00 Build 0)  -->
<svg version="1.1" id="Слой_4" xmlns="http://www.w3.org/2000/svg" xmlns:xlink="http://www.w3.org/1999/xlink" x="0px" y="0px"
	 viewBox="0 0 166 166" style="enable-background:new 0 0 166 166;" xml:space="preserve">
<style type="text/css">
	.st0{opacity:0.5;fill:url(#SVGID_1_);}
	.st1{fill:#030049;fill-opacity:0.2;}
	.st2{fill:#030049;fill-opacity:0.21;}
	.st3{fill:#030049;fill-opacity:0.25;}
</style>
<linearGradient id="SVGID_1_" gradientUnits="userSpaceOnUse" x1="128.0047" y1="-970.9612" x2="39.9299" y2="-818.4111" gradientTransform="matrix(1 0 0 1 0 976)">
	<stop  offset="0" style="stop-color:#6681DF"/>
	<stop  offset="0.1692" style="stop-color:#3F5ADA"/>
	<stop  offset="0.3837" style="stop-color:#36348E"/>
	<stop  offset="0.5667" style="stop-color:#281A7C"/>
	<stop  offset="0.7433" style="stop-color:#281A57"/>
	<stop  offset="0.8994" style="stop-color:#201337"/>
</linearGradient>
<circle class="st0" cx="83" cy="83" r="83"/>
<path class="st1" d="M4.4,109.9c0,0,7.8-7.1,24.9-7.7c17.2-0.6,12.7,10.9,28.4,9.8c15.7-1.2,15.4-8.6,29.6-9.8
	c14.2-1.2,13,9.1,25.4,9.9c12.4,0.8,22.2-9.5,31.4-10c9.2-0.5,16.6,10,16.6,10s-3.7,13.2-13.2,23.1c0,0-1.9-7.3-10.5-6.7
	c-8.6,0.6-18.3,4.1-25.4,4.4c-7.1,0.3-14.8-6.5-22.5-6.5s-21.3,8.1-32.5,8.8s-16-9.9-25.5-9.1c-9.5,0.9-15,6.1-15,6.1
	S7.3,120.3,4.4,109.9z"/>
<path class="st2" d="M4.4,56.1c0,0,12.2-10.5,27.9-10.2C48,46.2,45.1,58.1,58.7,57.8C72.3,57.5,70.1,48,83,47.7
	c12.9-0.3,9.7,11.5,25.7,11.5s18.6-13.6,30.8-11.8c12.1,1.8,17,12.8,23.4,12.9c3.1,9.6,3.1,21.1,3.1,21.1s-16.2-9.8-28.4-8.6
	c-12.1,1.2-21,9.3-32.9,10.1S90.3,69.9,81.1,69.9S67.2,82,57.5,83s-17.1-14-26-14.3c-8.9-0.3-31.2,7.7-31.2,7.7S1.1,64.4,4.4,56.1z"
	/>
<path class="st3" d="M34.6,15.6c0,0,8.1,5,19.6,3.8c11.5-1.2,16.9-10.1,24.6-9.5c7.7,0.6,8.3,11.2,15.4,11.2s11.6-11.8,17.7-11.3
	c7.4,0.6,3,11.9,8,11.3s13.5-4,13.5-4s7.3,5.8,10.6,9.7c0,0-7,7.3-19.4,6.5c-12.4-0.9-10.1-6.2-17.4-6.2c-7.4,0-6.2,6.7-13.3,6.3
	c-7.1-0.4-8.3-9.2-15.4-9.5c-7.1-0.3-20.4,7.1-28.7,7.1s-22.6-9.3-22.6-9.3S30.6,18.2,34.6,15.6z"/>
</svg>
