<svg width="162" height="161" viewBox="0 0 162 161" fill="none" xmlns="http://www.w3.org/2000/svg">
<path opacity="0.32" d="M147.157 125.597C172.162 89.1363 162.784 39.3723 126.21 14.445C89.6355 -10.4821 39.7153 -1.13308 14.7098 35.3268C-10.2957 71.7866 -0.917138 121.551 35.6572 146.478C72.2314 171.405 122.152 162.056 147.157 125.597Z" fill="url(#paint0_linear_926_34)"/>
<path opacity="0.24" d="M136.421 79.6676C136.421 82.3709 135.617 85.0134 134.111 87.2611C132.604 89.5087 130.463 91.2605 127.957 92.295C125.452 93.3295 122.696 93.6002 120.036 93.0728C117.376 92.5454 114.933 91.2437 113.016 89.3323C111.098 87.4208 109.792 84.9854 109.263 82.3342C108.734 79.6828 109.006 76.9347 110.044 74.4373C111.081 71.9398 112.839 69.8053 115.093 68.3035C117.348 66.8015 119.999 66 122.711 66C126.347 66 129.834 67.44 132.405 70.0031C134.976 72.5664 136.421 76.0428 136.421 79.6676Z" fill="black"/>
<path opacity="0.24" d="M62.372 84.8885C62.372 86.2084 61.9791 87.4986 61.2437 88.5961C60.5079 89.6935 59.4626 90.5488 58.2393 91.054C57.016 91.559 55.6701 91.6912 54.3713 91.4337C53.0729 91.1762 51.88 90.5406 50.9438 89.6073C50.0076 88.6741 49.37 87.485 49.1117 86.1905C48.8534 84.8959 48.986 83.5541 49.4927 82.3347C49.9993 81.1153 50.8574 80.0731 51.9582 79.3398C53.0591 78.6065 54.3536 78.2151 55.6776 78.2151C57.4531 78.2151 59.1555 78.9182 60.411 80.1697C61.6664 81.4212 62.372 83.1186 62.372 84.8885Z" fill="black"/>
<path opacity="0.24" d="M63.479 50.4608C63.479 51.258 63.2417 52.0373 62.7976 52.7002C62.3531 53.363 61.7218 53.8796 60.9829 54.1847C60.2441 54.4898 59.4312 54.5696 58.6467 54.4141C57.8625 54.2585 57.142 53.8747 56.5765 53.311C56.0111 52.7473 55.626 52.0291 55.47 51.2472C55.314 50.4653 55.394 49.6549 55.7001 48.9184C56.0061 48.1818 56.5243 47.5524 57.1892 47.1095C57.8541 46.6666 58.636 46.4302 59.4357 46.4302C60.5081 46.4302 61.5363 46.8548 62.2946 47.6107C63.0528 48.3666 63.479 49.3918 63.479 50.4608Z" fill="black"/>
<path opacity="0.24" d="M93.6297 104.783C93.6297 105.581 93.3925 106.36 92.9483 107.023C92.5039 107.686 91.8725 108.202 91.1337 108.507C90.3948 108.812 89.5819 108.892 88.7975 108.737C88.0132 108.581 87.2928 108.197 86.7273 107.633C86.1618 107.07 85.7767 106.352 85.6207 105.57C85.4647 104.788 85.5448 103.977 85.8508 103.241C86.1568 102.504 86.6751 101.875 87.34 101.432C88.0049 100.989 88.7868 100.753 89.5864 100.753C90.6588 100.753 91.687 101.177 92.4453 101.933C93.2036 102.689 93.6297 103.714 93.6297 104.783Z" fill="black"/>
<path opacity="0.24" d="M100.811 24.4538C100.814 26.4639 100.218 28.4295 99.0998 30.102C97.9813 31.7743 96.3902 33.0783 94.5279 33.8489C92.6655 34.6193 90.6157 34.8215 88.6381 34.43C86.6602 34.0386 84.8436 33.071 83.4177 31.6497C81.9919 30.2283 81.0213 28.4173 80.6286 26.4457C80.2359 24.4742 80.4389 22.4308 81.2117 20.5744C81.9846 18.7179 83.2926 17.1317 84.9703 16.0167C86.648 14.9017 88.6197 14.308 90.6361 14.3106C93.3336 14.3142 95.9196 15.384 97.827 17.2855C99.7344 19.1869 100.808 21.7649 100.811 24.4538Z" fill="black"/>
<path opacity="0.24" d="M101.378 64.1433C101.381 66.1534 100.785 68.119 99.6664 69.7915C98.5478 71.4638 96.9567 72.7677 95.0944 73.5383C93.232 74.3087 91.1823 74.511 89.2046 74.1195C87.2268 73.728 85.4101 72.7604 83.9843 71.3392C82.5584 69.9178 81.5878 68.1067 81.1951 66.1352C80.8024 64.1636 81.0054 62.1203 81.7782 60.2639C82.5511 58.4073 83.8592 56.8211 85.5369 55.7061C87.2146 54.5911 89.1863 53.9974 91.2026 54C93.9001 54.0037 96.4862 55.0735 98.3936 56.9749C100.301 58.8764 101.374 61.4543 101.378 64.1433Z" fill="black"/>
<defs>
<linearGradient id="paint0_linear_926_34" x1="145" y1="-33" x2="8.00001" y2="174.5" gradientUnits="userSpaceOnUse">
<stop stop-color="#CDFDB6"/>
<stop offset="0.239583" stop-color="#A5B30F" stop-opacity="0.93"/>
<stop offset="0.567708" stop-color="#326414" stop-opacity="0.9"/>
<stop offset="0.6875" stop-color="#21163E"/>
</linearGradient>
</defs>
</svg>
