<svg width="162" height="161" viewBox="0 0 162 161" fill="none" xmlns="http://www.w3.org/2000/svg">
<path opacity="0.32" d="M147.157 125.597C172.162 89.1363 162.784 39.3723 126.21 14.445C89.6356 -10.4821 39.7154 -1.13308 14.7099 35.3268C-10.2956 71.7866 -0.917077 121.551 35.6572 146.478C72.2315 171.405 122.152 162.056 147.157 125.597Z" fill="url(#paint0_linear_926_31)"/>
<path opacity="0.24" d="M55.3674 70.3784C55.3674 74.7045 54.0798 78.9332 51.6695 82.5303C49.2578 86.1271 45.8318 88.9305 41.8224 90.5861C37.813 92.2414 33.4019 92.6746 29.145 91.8307C24.8892 90.9867 20.9797 88.9036 17.9112 85.8447C14.8426 82.7858 12.753 78.8885 11.9064 74.6457C11.0599 70.4027 11.4943 66.0049 13.155 62.0083C14.8156 58.0116 17.6278 54.5957 21.236 52.1923C24.8442 49.7888 29.087 48.5061 33.4263 48.5061C39.2457 48.5061 44.8253 50.8105 48.9401 54.9123C53.0549 59.0143 55.3674 64.5775 55.3674 70.3784Z" fill="black"/>
<path opacity="0.24" d="M119.857 99.629C119.857 102.78 118.92 105.861 117.164 108.481C115.407 111.101 112.911 113.143 109.991 114.349C107.07 115.555 103.856 115.871 100.756 115.256C97.6553 114.641 94.8074 113.124 92.5721 110.896C90.3368 108.667 88.8145 105.828 88.1978 102.737C87.5812 99.6467 87.8976 96.443 89.1074 93.5316C90.3171 90.6202 92.3657 88.1318 94.9941 86.3811C97.6225 84.6302 100.713 83.6958 103.874 83.6958C108.113 83.6958 112.178 85.3745 115.175 88.3625C118.173 91.3506 119.857 95.4032 119.857 99.629Z" fill="black"/>
<path opacity="0.24" d="M110.616 42.1975C110.619 44.2076 110.023 46.1732 108.905 47.8457C107.786 49.518 106.195 50.8219 104.333 51.5925C102.47 52.3629 100.421 52.5652 98.4429 52.1737C96.4651 51.7822 94.6484 50.8146 93.2225 49.3934C91.7967 47.972 90.8261 46.1609 90.4334 44.1894C90.0407 42.2178 90.2437 40.1745 91.0165 38.3181C91.7894 36.4615 93.0975 34.8753 94.7751 33.7603C96.4528 32.6453 98.4245 32.0516 100.441 32.0542C103.138 32.0579 105.724 33.1277 107.632 35.0291C109.539 36.9306 110.613 39.5085 110.616 42.1975Z" fill="black"/>
<defs>
<linearGradient id="paint0_linear_926_31" x1="161" y1="14.5" x2="-13" y2="160" gradientUnits="userSpaceOnUse">
<stop stop-color="#CB45EC"/>
<stop offset="0.39" stop-color="#764383" stop-opacity="0.93"/>
<stop offset="0.567708" stop-color="#421464" stop-opacity="0.9"/>
<stop offset="0.671875" stop-color="#21163E"/>
</linearGradient>
</defs>
</svg>
