<svg width="416" height="416" viewBox="0 0 416 416" fill="none" xmlns="http://www.w3.org/2000/svg">
<path d="M208 0C93.31 0 0 93.31 0 208C0 322.69 93.31 416 208 416C322.69 416 416 322.69 416 208C416 93.31 322.69 0 208 0ZM328 190.77H239L275.88 153.89L270.28 147.38C260.263 136.981 247.826 129.226 234.079 124.809C220.333 120.392 205.706 119.45 191.507 122.068C177.308 124.685 163.978 130.781 152.71 139.809C141.443 148.837 132.588 160.517 126.937 173.804C121.286 187.091 119.016 201.571 120.33 215.95C121.644 230.328 126.5 244.157 134.464 256.201C142.429 268.244 153.254 278.126 165.971 284.963C178.688 291.8 192.901 295.379 207.34 295.38C225.41 295.363 243.032 289.756 257.788 279.326C272.545 268.897 283.713 254.158 289.76 237.13L295.13 222L325.3 232.67L320 247.8C312.707 268.438 299.882 286.675 282.925 300.517C265.968 314.358 245.532 323.272 223.851 326.284C202.171 329.296 180.079 326.29 159.991 317.595C139.903 308.9 122.592 294.85 109.95 276.981C97.3076 259.112 89.8206 238.112 88.3073 216.275C86.7939 194.439 91.3123 172.606 101.369 153.164C111.425 133.722 126.633 117.418 145.329 106.035C164.025 94.6522 185.491 88.6276 207.38 88.62C223.535 88.5583 239.531 91.8048 254.383 98.1595C269.236 104.514 282.629 113.843 293.74 125.57L294.3 126.19L298.61 131.19L328 101.81V190.77Z" fill="#9747FF"/>
</svg>
