<svg width="185" height="211" viewBox="0 0 185 211" fill="none" xmlns="http://www.w3.org/2000/svg">
<path d="M57.2074 20.9681C44.6475 24.4296 32.1729 28.1936 19.7945 32.2566C18.6642 32.6228 17.6594 33.299 16.8947 34.2083C16.13 35.1176 15.636 36.2234 15.469 37.3997C8.16313 92.2202 25.0431 132.218 45.1804 158.566C53.7064 169.834 63.8725 179.76 75.3403 188.014C79.9031 191.232 83.9385 193.553 87.1167 195.043C88.6992 195.795 89.9916 196.296 90.9806 196.599C91.4132 196.751 91.8592 196.861 92.3126 196.929C92.7606 196.856 93.2017 196.746 93.6313 196.599C94.6336 196.296 95.9259 195.795 97.5084 195.043C100.673 193.553 104.722 191.219 109.285 188.014C120.753 179.76 130.919 169.834 139.445 158.566C159.582 132.231 176.462 92.2202 169.156 37.3997C168.991 36.2229 168.497 35.1163 167.732 34.2068C166.967 33.2972 165.962 32.6214 164.831 32.2566C156.246 29.4477 141.753 24.8716 127.418 20.9813C112.78 17.0119 99.3151 14.0711 92.3126 14.0711C85.3232 14.0711 71.8456 17.0119 57.2074 20.9813V20.9681ZM53.6996 7.385C68.008 3.49469 83.2132 0 92.3126 0C101.412 0 116.617 3.49469 130.926 7.385C145.564 11.3413 160.321 16.0228 168.998 18.8581C172.626 20.0562 175.842 22.2534 178.278 25.1974C180.713 28.1413 182.269 31.7125 182.766 35.5007C190.625 94.5412 172.387 138.297 150.258 167.244C140.875 179.627 129.686 190.531 117.066 199.593C112.702 202.729 108.078 205.486 103.245 207.835C99.5525 209.576 95.5831 211 92.3126 211C89.0421 211 85.0858 209.576 81.3801 207.835C76.5471 205.486 71.9235 202.729 67.5596 199.593C54.9396 190.531 43.7507 179.626 34.3667 167.244C12.2381 138.297 -6.00024 94.5412 1.85951 35.5007C2.35651 31.7125 3.91205 28.1413 6.34744 25.1974C8.78282 22.2534 11.9993 20.0562 15.6273 18.8581C28.2238 14.7279 40.9183 10.9024 53.6996 7.385Z" fill="#342150"/>
<path d="M112.094 85.7189C112.096 89.8113 110.829 93.8037 108.467 97.1457C106.105 100.488 102.765 103.015 98.9063 104.379L103.983 130.622C104.168 131.577 104.14 132.56 103.9 133.503C103.66 134.445 103.214 135.322 102.596 136.072C101.977 136.822 101.2 137.426 100.32 137.84C99.4408 138.254 98.4806 138.469 97.5084 138.469H87.1166C86.1455 138.467 85.1868 138.251 84.309 137.836C83.4311 137.42 82.6558 136.816 82.0385 136.067C81.4211 135.317 80.977 134.44 80.7378 133.499C80.4986 132.558 80.4702 131.576 80.6548 130.622L85.7188 104.379C82.3 103.17 79.2793 101.045 76.9867 98.236C74.6941 95.4266 73.2178 92.0411 72.7192 88.4495C72.2205 84.8578 72.7187 81.1982 74.1593 77.8706C75.5999 74.5429 77.9274 71.6752 80.8876 69.5809C83.8477 67.4866 87.3266 66.2463 90.944 65.9954C94.5614 65.7445 98.1782 66.4928 101.399 68.1585C104.62 69.8241 107.321 72.3431 109.207 75.44C111.093 78.537 112.092 82.0928 112.094 85.7189Z" fill="#342150"/>
</svg>
