<svg width="155" height="155" viewBox="0 0 155 155" fill="none" xmlns="http://www.w3.org/2000/svg">
<path opacity="0.7" d="M86.5765 78.3145L154.995 78.3145C154.998 78.0434 155 77.7722 155 77.4999C155 71.9528 154.416 66.5417 153.308 61.325L106.853 61.325C102.693 61.325 99.2895 57.9213 99.2895 53.7612C99.2895 49.6011 102.693 46.1974 106.853 46.1974L148.417 46.1974C136.389 18.9875 109.162 7.34185e-09 77.4999 5.21237e-09C71.7468 4.82543e-09 66.1391 0.628377 60.7432 1.81764L60.7432 23.8318C74.9678 25.6727 85.4617 39.4051 81.9312 54.7329C79.8098 63.9421 72.5486 71.1568 63.3277 73.234C46.9049 76.9332 32.3498 64.5449 32.3498 48.7575C32.3498 36.02 41.8244 25.497 54.1103 23.8481L54.1103 3.59339C22.7403 13.5125 -2.88191e-09 42.8496 -5.21237e-09 77.4999C-8.08833e-09 120.261 34.861 155.066 77.6221 155C102.22 154.961 124.13 143.463 138.301 125.559L117.522 125.559C113.575 125.559 110.208 122.573 109.877 118.64C109.503 114.193 113.039 110.432 117.414 110.432L147.675 110.432C150.193 105.075 152.115 99.3838 153.358 93.4421L86.5765 93.4421C82.4164 93.4421 79.0127 90.0384 79.0127 85.8783C79.0127 81.7182 82.4164 78.3145 86.5765 78.3145Z" fill="url(#paint0_linear_980_34)"/>
<path d="M57.4268 61.4414C64.3998 61.4414 70.0525 55.7887 70.0525 48.8157C70.0525 41.8427 64.3998 36.1899 57.4268 36.1899C50.4538 36.1899 44.801 41.8427 44.801 48.8157C44.801 55.7887 50.4538 61.4414 57.4268 61.4414Z" fill="#250049"/>
<defs>
<linearGradient id="paint0_linear_980_34" x1="119.409" y1="4.63806" x2="37.1899" y2="147.045" gradientUnits="userSpaceOnUse">
<stop stop-color="#662D91"/>
<stop offset="0.127633" stop-color="#622B8C"/>
<stop offset="0.387855" stop-color="#56247C"/>
<stop offset="0.450448" stop-color="#431862"/>
<stop offset="0.516953" stop-color="#431862"/>
<stop offset="0.735741" stop-color="#300B4A"/>
<stop offset="1" stop-color="#2E1F53"/>
</linearGradient>
</defs>
</svg>
