<svg width="179" height="179" viewBox="0 0 179 179" fill="none" xmlns="http://www.w3.org/2000/svg">
<path opacity="0.18" d="M89.5 179C138.929 179 179 138.929 179 89.5C179 40.0705 138.929 0 89.5 0C40.0705 0 0 40.0705 0 89.5C0 138.929 40.0705 179 89.5 179Z" fill="url(#paint0_linear_824_58)"/>
<path opacity="0.18" d="M89.5 166.215C131.869 166.215 166.215 131.869 166.215 89.5001C166.215 47.1315 131.869 12.785 89.5 12.785C47.1315 12.785 12.785 47.1315 12.785 89.5001C12.785 131.869 47.1315 166.215 89.5 166.215Z" fill="url(#paint1_linear_824_58)"/>
<path d="M89.5 161.1C129.044 161.1 161.1 129.044 161.1 89.5C161.1 49.9564 129.044 17.9 89.5 17.9C49.9564 17.9 17.9 49.9564 17.9 89.5C17.9 129.044 49.9564 161.1 89.5 161.1Z" fill="url(#paint2_linear_824_58)"/>
<path opacity="0.24" d="M148.065 73.6502C148.066 78.6636 146.581 83.5648 143.796 87.7337C141.011 91.9027 137.053 95.1522 132.421 97.0712C127.789 98.9903 122.693 99.4926 117.776 98.5148C112.858 97.537 108.342 95.1229 104.797 91.5779C101.252 88.0328 98.8375 83.5161 97.8596 78.5989C96.8818 73.6818 97.3842 68.585 99.3032 63.9534C101.222 59.3218 104.472 55.3633 108.641 52.5786C112.81 49.794 117.711 48.3082 122.724 48.3092C129.445 48.3092 135.891 50.9791 140.643 55.7314C145.395 60.4838 148.065 66.9293 148.065 73.6502Z" fill="url(#paint3_linear_824_58)"/>
<path opacity="0.24" d="M101.499 37.335C101.499 39.6622 100.809 41.937 99.5161 43.8719C98.2231 45.8068 96.3853 47.3147 94.2353 48.205C92.0852 49.0954 89.7193 49.3281 87.437 48.8737C85.1546 48.4193 83.0583 47.2983 81.4131 45.6524C79.768 44.0065 78.6479 41.9096 78.1945 39.6271C77.7411 37.3446 77.9748 34.9788 78.8661 32.8291C79.7574 30.6794 81.2662 28.8423 83.2016 27.5502C85.137 26.2581 87.4122 25.5689 89.7394 25.5699C92.8588 25.5713 95.8499 26.8115 98.0552 29.0177C100.26 31.2239 101.499 34.2156 101.499 37.335Z" fill="url(#paint4_linear_824_58)"/>
<path opacity="0.18" d="M89.7446 170.674C134.154 170.674 170.154 134.674 170.154 90.265C170.154 45.856 134.154 9.85547 89.7446 9.85547C45.3356 9.85547 9.33508 45.856 9.33508 90.265C9.33508 134.674 45.3356 170.674 89.7446 170.674Z" fill="url(#paint5_linear_824_58)"/>
<path opacity="0.18" d="M89.5052 173.276C135.483 173.276 172.756 136.004 172.756 90.0255C172.756 44.0475 135.483 6.7749 89.5052 6.7749C43.5271 6.7749 6.25458 44.0475 6.25458 90.0255C6.25458 136.004 43.5271 173.276 89.5052 173.276Z" fill="url(#paint6_linear_824_58)"/>
<path opacity="0.24" d="M143 78.4958C143.001 82.5507 141.799 86.5147 139.547 89.8866C137.295 93.2584 134.093 95.8866 130.347 97.4387C126.601 98.9908 122.479 99.3972 118.502 98.6063C114.525 97.8154 110.872 95.8629 108.004 92.9957C105.137 90.1284 103.185 86.4753 102.394 82.4983C101.603 78.5213 102.009 74.3991 103.561 70.653C105.113 66.907 107.742 63.7054 111.113 61.4531C114.485 59.2009 118.449 57.9992 122.504 58C127.94 58 133.153 60.1594 136.997 64.0031C140.841 67.8468 143 73.06 143 78.4958Z" fill="url(#paint7_linear_824_58)"/>
<path opacity="0.24" d="M101.499 37.335C101.499 39.6622 100.809 41.937 99.5161 43.8719C98.2231 45.8068 96.3853 47.3147 94.2353 48.205C92.0852 49.0954 89.7193 49.3281 87.437 48.8737C85.1546 48.4193 83.0583 47.2983 81.4131 45.6524C79.768 44.0065 78.6479 41.9096 78.1945 39.6271C77.7411 37.3446 77.9748 34.9788 78.8661 32.8291C79.7574 30.6794 81.2662 28.8423 83.2016 27.5502C85.137 26.2581 87.4122 25.5689 89.7394 25.5699C92.8588 25.5713 95.8499 26.8115 98.0552 29.0177C100.26 31.2239 101.499 34.2156 101.499 37.335Z" fill="url(#paint8_linear_824_58)"/>
<path opacity="0.24" d="M124.53 129.765C124.53 132.092 123.84 134.367 122.547 136.302C121.254 138.237 119.416 139.745 117.266 140.635C115.116 141.525 112.75 141.758 110.468 141.304C108.186 140.849 106.089 139.728 104.444 138.082C102.799 136.437 101.679 134.34 101.225 132.057C100.772 129.775 101.006 127.409 101.897 125.259C102.788 123.109 104.297 121.272 106.233 119.98C108.168 118.688 110.443 117.999 112.77 118C115.89 118.001 118.881 119.242 121.086 121.448C123.291 123.654 124.53 126.646 124.53 129.765Z" fill="url(#paint9_linear_824_58)"/>
<defs>
<linearGradient id="paint0_linear_824_58" x1="9.36108" y1="17.8896" x2="226.654" y2="212.063" gradientUnits="userSpaceOnUse">
<stop stop-color="#FFA63C"/>
<stop offset="0.07" stop-color="#FF9D3E"/>
<stop offset="0.19" stop-color="#FF8543"/>
<stop offset="0.34" stop-color="#FF5E4B"/>
<stop offset="0.52" stop-color="#FF2956"/>
<stop offset="0.63" stop-color="#FF005E"/>
<stop offset="0.76" stop-color="#82085F" stop-opacity="0.6"/>
<stop offset="0.83" stop-color="#420C60" stop-opacity="0.4"/>
<stop offset="0.87" stop-color="#690A60" stop-opacity="0.53"/>
<stop offset="0.91" stop-color="#560B5C" stop-opacity="0.36"/>
<stop offset="1" stop-color="#2D0D53" stop-opacity="0"/>
</linearGradient>
<linearGradient id="paint1_linear_824_58" x1="6149.99" y1="8304.15" x2="61065.7" y2="57378.8" gradientUnits="userSpaceOnUse">
<stop stop-color="#FFA63C"/>
<stop offset="0.07" stop-color="#FF9D3E"/>
<stop offset="0.19" stop-color="#FF8543"/>
<stop offset="0.34" stop-color="#FF5E4B"/>
<stop offset="0.52" stop-color="#FF2956"/>
<stop offset="0.63" stop-color="#FF005E"/>
<stop offset="0.76" stop-color="#82085F" stop-opacity="0.6"/>
<stop offset="0.83" stop-color="#420C60" stop-opacity="0.4"/>
<stop offset="0.87" stop-color="#690A60" stop-opacity="0.53"/>
<stop offset="0.91" stop-color="#560B5C" stop-opacity="0.36"/>
<stop offset="1" stop-color="#2D0D53" stop-opacity="0"/>
</linearGradient>
<linearGradient id="paint2_linear_824_58" x1="7006.06" y1="8881.98" x2="54843.5" y2="51631.5" gradientUnits="userSpaceOnUse">
<stop stop-color="#FFA63C"/>
<stop offset="0.07" stop-color="#FF9D3E"/>
<stop offset="0.19" stop-color="#FF8543"/>
<stop offset="0.34" stop-color="#FF5E4B"/>
<stop offset="0.52" stop-color="#FF2956"/>
<stop offset="0.63" stop-color="#FF005E"/>
<stop offset="0.76" stop-color="#82085F" stop-opacity="0.6"/>
<stop offset="0.83" stop-color="#420C60" stop-opacity="0.4"/>
<stop offset="0.87" stop-color="#690A60" stop-opacity="0.53"/>
<stop offset="0.91" stop-color="#560B5C" stop-opacity="0.36"/>
<stop offset="1" stop-color="#2D0D53" stop-opacity="0"/>
</linearGradient>
<linearGradient id="paint3_linear_824_58" x1="100.422" y1="47.2529" x2="149.377" y2="105.204" gradientUnits="userSpaceOnUse">
<stop stop-color="#300D5D"/>
<stop offset="1" stop-color="#2D0D53" stop-opacity="0"/>
</linearGradient>
<linearGradient id="paint4_linear_824_58" x1="3667.73" y1="1159.72" x2="4695.06" y2="2375.76" gradientUnits="userSpaceOnUse">
<stop stop-color="#300D5D"/>
<stop offset="1" stop-color="#2D0D53" stop-opacity="0"/>
</linearGradient>
<linearGradient id="paint5_linear_824_58" x1="5494.87" y1="8021.86" x2="65829.3" y2="61938" gradientUnits="userSpaceOnUse">
<stop stop-color="#FFA63C"/>
<stop offset="0.07" stop-color="#FF9D3E"/>
<stop offset="0.19" stop-color="#FF8543"/>
<stop offset="0.34" stop-color="#FF5E4B"/>
<stop offset="0.52" stop-color="#FF2956"/>
<stop offset="0.63" stop-color="#FF005E"/>
<stop offset="0.76" stop-color="#82085F" stop-opacity="0.6"/>
<stop offset="0.83" stop-color="#420C60" stop-opacity="0.4"/>
<stop offset="0.87" stop-color="#690A60" stop-opacity="0.53"/>
<stop offset="0.91" stop-color="#560B5C" stop-opacity="0.36"/>
<stop offset="1" stop-color="#2D0D53" stop-opacity="0"/>
</linearGradient>
<linearGradient id="paint6_linear_824_58" x1="4794.83" y1="7499.33" x2="69467.2" y2="65291.9" gradientUnits="userSpaceOnUse">
<stop stop-color="#FFA63C"/>
<stop offset="0.07" stop-color="#FF9D3E"/>
<stop offset="0.19" stop-color="#FF8543"/>
<stop offset="0.34" stop-color="#FF5E4B"/>
<stop offset="0.52" stop-color="#FF2956"/>
<stop offset="0.63" stop-color="#FF005E"/>
<stop offset="0.76" stop-color="#82085F" stop-opacity="0.6"/>
<stop offset="0.83" stop-color="#420C60" stop-opacity="0.4"/>
<stop offset="0.87" stop-color="#690A60" stop-opacity="0.53"/>
<stop offset="0.91" stop-color="#560B5C" stop-opacity="0.36"/>
<stop offset="1" stop-color="#2D0D53" stop-opacity="0"/>
</linearGradient>
<linearGradient id="paint7_linear_824_58" x1="104.466" y1="57.1457" x2="144.061" y2="104.017" gradientUnits="userSpaceOnUse">
<stop stop-color="#300D5D"/>
<stop offset="1" stop-color="#2D0D53" stop-opacity="0"/>
</linearGradient>
<linearGradient id="paint8_linear_824_58" x1="3667.73" y1="1159.72" x2="4695.06" y2="2375.76" gradientUnits="userSpaceOnUse">
<stop stop-color="#300D5D"/>
<stop offset="1" stop-color="#2D0D53" stop-opacity="0"/>
</linearGradient>
<linearGradient id="paint9_linear_824_58" x1="3690.77" y1="1252.15" x2="4718.09" y2="2468.19" gradientUnits="userSpaceOnUse">
<stop stop-color="#300D5D"/>
<stop offset="1" stop-color="#2D0D53" stop-opacity="0"/>
</linearGradient>
</defs>
</svg>
